<svg id="Layer_1" data-name="Layer 1" xmlns="http://www.w3.org/2000/svg" viewBox="0 0 32 32"><defs><style>.cls-1{fill:#45b6e1;}</style></defs><title>appliances-hvac</title><path class="cls-1" d="M1.33,10.29H30.67A1.34,1.34,0,0,1,32,11.62v6.25a3.84,3.84,0,0,1-3.83,3.83H3.83A3.84,3.84,0,0,1,0,17.88V11.62a1.34,1.34,0,0,1,1.33-1.33Zm29.33,1H1.33a.34.34,0,0,0-.33.33v6.25a2.84,2.84,0,0,0,2.83,2.83H28.17A2.84,2.84,0,0,0,31,17.88V11.62a.34.34,0,0,0-.33-.33Z"/><path class="cls-1" d="M27.17,21.71H4.83a.5.5,0,0,1-.5-.5V19.63a1.34,1.34,0,0,1,1.33-1.33H26.33a1.34,1.34,0,0,1,1.33,1.33v1.58A.5.5,0,0,1,27.17,21.71Zm-21.83-1H26.67V19.63a.34.34,0,0,0-.33-.33H5.67a.34.34,0,0,0-.33.33Z"/><path class="cls-1" d="M3.62,12.15A.65.65,0,1,1,3,12.8.65.65,0,0,1,3.62,12.15Z"/><path class="cls-1" d="M3.62,14.24A.65.65,0,1,1,3,14.9.65.65,0,0,1,3.62,14.24Z"/><path class="cls-1" d="M3.62,16.33A.65.65,0,1,1,3,17,.65.65,0,0,1,3.62,16.33Z"/><path class="cls-1" d="M13.6,16.3a.5.5,0,0,0,0,1h4.8a.5.5,0,0,0,0-1Z"/></svg>