<svg id="Layer_1" data-name="Layer 1" xmlns="http://www.w3.org/2000/svg" viewBox="0 0 32 32"><defs><style>.cls-1{fill:#f06088;}</style></defs><title>appliances-dish-washer</title><path class="cls-1" d="M28.29,0H3.71a.52.52,0,0,0-.52.52v31a.52.52,0,0,0,.52.52H8.33a.52.52,0,0,0,.52-.52V30.05H23.12v1.43a.52.52,0,0,0,.52.52h4.62a.52.52,0,0,0,.52-.52V29.72a.52.52,0,0,0,0-.19V.52A.52.52,0,0,0,28.29,0Zm-20,29H4.23V7.25H27.77V29H8.33ZM4.23,1H27.77V6.22H4.23ZM7.81,31H4.23v-.92H7.81Zm19.92,0H24.15v-.92h3.59Z"/><path class="cls-1" d="M7.11,1.89A1.74,1.74,0,1,0,8.84,3.63,1.74,1.74,0,0,0,7.11,1.89Zm0,2.44a.7.7,0,1,1,.7-.7A.71.71,0,0,1,7.11,4.33Z"/><path class="cls-1" d="M11.25,1.89A1.74,1.74,0,1,0,13,3.63,1.74,1.74,0,0,0,11.25,1.89Zm0,2.44a.7.7,0,1,1,.7-.7A.71.71,0,0,1,11.25,4.33Z"/><path class="cls-1" d="M15.39,1.89a1.74,1.74,0,1,0,1.74,1.74A1.74,1.74,0,0,0,15.39,1.89Zm0,2.44a.7.7,0,1,1,.7-.7A.71.71,0,0,1,15.39,4.33Z"/><path class="cls-1" d="M25.94,8.55H21.77a.52.52,0,1,0,0,1h4.17a.52.52,0,0,0,0-1Z"/><path class="cls-1" d="M20.64,14.38a.52.52,0,0,0-.52-.52h-8.6a.52.52,0,0,0-.52.52,4.82,4.82,0,0,0,4.3,4.79V23.8H12.88a.52.52,0,1,0,0,1h5.89a.52.52,0,1,0,0-1H16.34V19.16A4.82,4.82,0,0,0,20.64,14.38Zm-8.56.52h7.5a3.78,3.78,0,0,1-7.5,0Z"/></svg>