<svg id="Layer_1" data-name="Layer 1" xmlns="http://www.w3.org/2000/svg" viewBox="0 0 32 32"><defs><style>.cls-1{fill:#58c386;}</style></defs><title>appliances-refridgerator</title><path class="cls-1" d="M7.8,0H24.2a.79.79,0,0,1,.56.23h0l0,0A.79.79,0,0,1,25,.8V30.28a.8.8,0,0,1-.23.56h0a.79.79,0,0,1-.56.23H7.8a.8.8,0,0,1-.56-.23h0l0,0A.79.79,0,0,1,7,30.28V.8A.8.8,0,0,1,7.24.24h0l0,0A.79.79,0,0,1,7.8,0ZM24,1H8v29H24ZM7.8.8h0ZM24.2,30.28h0l.2.2Zm0,0h0Zm0,0-.14-.15h0l.15.15Zm-16.4,0h0l-.2.2Zm0,0h0Zm0,0,.14-.14h0l-.14.14ZM7.6.59l.2.2h0ZM7.8.8l.14.14h0L7.8.8Z"/><path class="cls-1" d="M7.51,11.47a.51.51,0,1,0,0,1h17a.51.51,0,0,0,0-1Z"/><path class="cls-1" d="M10.57,3.65a.51.51,0,1,0-1,0V8.84a.51.51,0,1,0,1,0Z"/><path class="cls-1" d="M10.57,15.35a.51.51,0,0,0-1,0v6.56a.51.51,0,0,0,1,0Z"/><path class="cls-1" d="M21.52,30.57H22a.49.49,0,0,1,.49.49v.46A.49.49,0,0,1,22,32h-.46a.49.49,0,0,1-.49-.49v-.46A.49.49,0,0,1,21.52,30.57Z"/><path class="cls-1" d="M10,30.57h.46a.49.49,0,0,1,.49.49v.46a.49.49,0,0,1-.49.49H10a.49.49,0,0,1-.49-.49v-.46A.49.49,0,0,1,10,30.57Z"/></svg>