<svg id="Layer_1" data-name="Layer 1" xmlns="http://www.w3.org/2000/svg" viewBox="0 0 32 32"><defs><style>.cls-1{fill:#f49d37;}</style></defs><title>appliances-washing-machine</title><path class="cls-1" d="M2.12,6.65H29.88a.5.5,0,0,1,.5.5V31.08a.92.92,0,0,1-.92.92H2.54a.92.92,0,0,1-.92-.92V7.15A.5.5,0,0,1,2.12,6.65Zm27.25,1H2.62V31H29.38Z"/><path class="cls-1" d="M1.64,7a.5.5,0,1,0,1,.25L4.2,1H27.8l1.59,6.25a.5.5,0,1,0,1-.25L28.68.39A.5.5,0,0,0,28.19,0H3.82a.5.5,0,0,0-.49.38L3.81.5,3.33.38Z"/><path class="cls-1" d="M16,8.85a10.47,10.47,0,1,1-7.4,3.07A10.44,10.44,0,0,1,16,8.85Zm6.7,3.77a9.47,9.47,0,1,0,2.77,6.7A9.44,9.44,0,0,0,22.7,12.63Z"/><path class="cls-1" d="M16,17a2.31,2.31,0,1,1-1.63.68A2.3,2.3,0,0,1,16,17Zm.92,1.38a1.31,1.31,0,1,0,.38.92A1.3,1.3,0,0,0,16.92,18.4Z"/><path class="cls-1" d="M14.44,18a.5.5,0,1,0,.95-.3s-1.3-4-.56-4.6l-.3-.4.3.4,0,0a3.73,3.73,0,0,1,3.51-.25,2.67,2.67,0,0,1,.68.38.72.72,0,0,1,.25.31c0,.06,0,.13-.15.23h0l0,0c-.33.26-2.66,2.11-3.06,3.7a.5.5,0,1,0,1,.25c.33-1.28,2.4-2.92,2.7-3.15l0,0h0a1.15,1.15,0,0,0,.5-1.29,1.66,1.66,0,0,0-.58-.8,3.68,3.68,0,0,0-.95-.53,4.74,4.74,0,0,0-4.5.4l0,0h0C12.93,13.34,14.44,18,14.44,18Z"/><path class="cls-1" d="M17.3,17.77a.5.5,0,1,0,.3.95s4-1.3,4.6-.56l.4-.3-.4.3,0,0a3.49,3.49,0,0,1,.28,3.46,2.69,2.69,0,0,1-.4.67.84.84,0,0,1-.34.27c-.06,0-.13,0-.2-.11h0l0,0c-.26-.33-2.11-2.66-3.7-3.06a.5.5,0,1,0-.25,1c1.28.33,2.92,2.4,3.15,2.7l0,0h0a1.11,1.11,0,0,0,1.3.45,1.8,1.8,0,0,0,.79-.57,3.68,3.68,0,0,0,.56-.92A4.5,4.5,0,0,0,23,17.58l0,0h0C22,16.25,17.31,17.76,17.3,17.77Z"/><path class="cls-1" d="M17.56,20.62a.5.5,0,0,0-.95.3s1.3,4,.56,4.6l.3.4-.3-.4,0,0a3.49,3.49,0,0,1-3.46.28,2.7,2.7,0,0,1-.67-.4.84.84,0,0,1-.27-.34c0-.06,0-.13.11-.2h0l0,0c.33-.26,2.66-2.11,3.06-3.7a.5.5,0,0,0-1-.25c-.33,1.28-2.4,2.92-2.7,3.15l0,0h0a1.11,1.11,0,0,0-.45,1.3,1.8,1.8,0,0,0,.57.79,3.69,3.69,0,0,0,.92.56,4.5,4.5,0,0,0,4.48-.42l0,0h0C19.07,25.31,17.56,20.64,17.56,20.62Z"/><path class="cls-1" d="M14.7,20.88a.5.5,0,1,0-.3-.95s-4,1.3-4.6.56l-.4.3.4-.3,0,0A3.49,3.49,0,0,1,9.49,17a2.69,2.69,0,0,1,.4-.67.84.84,0,0,1,.34-.27c.06,0,.13,0,.2.11h0l0,0c.26.33,2.11,2.66,3.7,3.06a.5.5,0,1,0,.25-1c-1.28-.33-2.92-2.4-3.15-2.7l0,0h0a1.11,1.11,0,0,0-1.3-.45,1.8,1.8,0,0,0-.79.57,3.68,3.68,0,0,0-.56.92A4.5,4.5,0,0,0,9,21.07l0,0H9C10,22.4,14.69,20.89,14.7,20.88Z"/><path class="cls-1" d="M7,2.11a1.72,1.72,0,1,1-1.22.5A1.71,1.71,0,0,1,7,2.11Zm.51,1.21a.72.72,0,1,0,.21.51A.72.72,0,0,0,7.52,3.33Z"/><path class="cls-1" d="M12.31,2.44a1.39,1.39,0,1,1-1,.41A1.39,1.39,0,0,1,12.31,2.44Zm.28,1.11a.39.39,0,1,0,.11.28A.39.39,0,0,0,12.58,3.56Z"/><path class="cls-1" d="M22.41,3.31a.5.5,0,0,0,0,1H25a.5.5,0,0,0,0-1Z"/></svg>