<svg id="Layer_1" data-name="Layer 1" xmlns="http://www.w3.org/2000/svg" viewBox="0 0 14 14"><defs><style>.cls-1{fill:#b3b3b3;}</style></defs><title>detector-water-meter</title><path class="cls-1" d="M7.51,14a.25.25,0,0,1-.26-.26V12.9H6.79v.84a.25.25,0,0,1-.26.26.25.25,0,0,1-.26-.26v-.85H6a.72.72,0,0,1-.72-.72v-.28A.72.72,0,0,1,6,11.17h.24v-.29a5.38,5.38,0,1,1,1.5,0v.29H8a.72.72,0,0,1,.72.72v.28A.72.72,0,0,1,8,12.9H7.77v.84A.25.25,0,0,1,7.51,14ZM6,11.71a.19.19,0,0,0-.19.19v.28a.19.19,0,0,0,.19.19H8a.19.19,0,0,0,.19-.19V11.9A.19.19,0,0,0,8,11.71Zm1.22-.52V11H6.77v.24ZM7,.53a4.95,4.95,0,1,0,4.94,4.94A5,5,0,0,0,7,.53Z"/><path class="cls-1" d="M6.23,8.27a.61.61,0,0,1-.61-.61V7.44a.61.61,0,0,1,.61-.61H7.77a.6.6,0,0,1,.61.61v.23a.61.61,0,0,1-.61.61Zm0-.94a.09.09,0,0,0-.09.09v.23a.09.09,0,0,0,.09.09H7.77a.09.09,0,0,0,.09-.09V7.42a.09.09,0,0,0-.09-.09Z"/><path class="cls-1" d="M7,6.34A.87.87,0,1,1,7,4.59a.86.86,0,0,1,.48.15L8.56,3.66a.28.28,0,0,1,.39,0,.26.26,0,0,1,0,.37L7.82,5.16a1,1,0,0,1,.06.31A.87.87,0,0,1,7,6.34ZM7,5.12a.35.35,0,1,0,.35.35A.35.35,0,0,0,7,5.12Z"/></svg>