<svg id="Layer_1" data-name="Layer 1" xmlns="http://www.w3.org/2000/svg" viewBox="0 0 14 14"><defs><style>.cls-1{fill:#b3b3b3;}</style></defs><title>detector-water-leack</title><path class="cls-1" d="M1.94,0A1.27,1.27,0,0,0,.69,1.26v2a1.23,1.23,0,0,0,1.24,1.2H7.62A.59.59,0,0,1,8.22,5v.46a1.2,1.2,0,0,0-.66,1.07v0a1.2,1.2,0,0,0,1.2,1.2h3.36a1.2,1.2,0,0,0,1.2-1.2v0a1.2,1.2,0,0,0-.66-1.07V1.26A1.15,1.15,0,0,0,11.56,0ZM12,1.26V5.32H8.88V5A1.26,1.26,0,0,0,7.62,3.77H1.94a.58.58,0,0,1-.58-.54v-2A.63.63,0,0,1,1.94.67h9.63C11.87.67,12,1,12,1.26Zm.66,5.25v0a.53.53,0,0,1-.53.53H8.75a.53.53,0,0,1-.53-.53v0A.53.53,0,0,1,8.75,6h3.36A.53.53,0,0,1,12.64,6.51ZM11.16,8.37a.32.32,0,0,0-.19.41s.11.5-.52,1.69a12.2,12.2,0,0,1-.8,1.27,2.09,2.09,0,0,0-.39,1A1.41,1.41,0,0,0,10.77,14a1.51,1.51,0,0,0,1.45-.89,3.39,3.39,0,0,0,.23-1.31,13.45,13.45,0,0,0-.84-3.16l0,0,0,0h0a.36.36,0,0,0-.28-.19A.28.28,0,0,0,11.16,8.37Zm.44.24v0l0,0Zm.19,3.18a2.74,2.74,0,0,1-.19,1.09.85.85,0,0,1-.82.45c-.46,0-.85-.28-.85-.6a1.59,1.59,0,0,1,.27-.62A13,13,0,0,0,11,10.77a7.12,7.12,0,0,0,.35-.76A7.77,7.77,0,0,1,11.78,11.8Z"/></svg>