<svg id="Layer_1" data-name="Layer 1" xmlns="http://www.w3.org/2000/svg" viewBox="0 0 14 14"><defs><style>.cls-1{fill:#b3b3b3;}</style></defs><title>detector-smoke</title><path class="cls-1" d="M13.67,9H7.88a.32.32,0,0,0-.26.14.38.38,0,0,0-.06.19.32.32,0,0,0,.33.33h2.48A2.52,2.52,0,0,1,8,11.39a2.68,2.68,0,0,1-.5,0l-.22,0-.12.17A2.46,2.46,0,0,1,2.79,9.24l.12-.33-.34-.09a2.64,2.64,0,0,1,.31-5.15l.2,0,.06-.2a2.71,2.71,0,0,1,5.31.79v.06H7.87a.32.32,0,0,0-.33.33.26.26,0,0,0,.09.22.33.33,0,0,0,.23.11h5.79a.3.3,0,0,0,.23-.11A.31.31,0,0,0,14,4.61a.32.32,0,0,0-.33-.33H9.12V4.22A3.38,3.38,0,0,0,5.75.85,3.34,3.34,0,0,0,2.59,3a3.29,3.29,0,0,0-.5,6.28A2.79,2.79,0,0,0,2,10a3.1,3.1,0,0,0,5.53,2A3.79,3.79,0,0,0,8,12,3.19,3.19,0,0,0,11,9.62h2.63A.32.32,0,0,0,14,9.3a.27.27,0,0,0-.06-.19A.33.33,0,0,0,13.67,9Z"/><path class="cls-1" d="M10.25,6.7H6.52a.33.33,0,0,0,0,.65h5.77a.33.33,0,1,0,0-.65Z"/></svg>