<svg id="Layer_1" data-name="Layer 1" xmlns="http://www.w3.org/2000/svg" viewBox="0 0 50 50"><defs><style>.cls-1{fill:#58c386;}.cls-2{fill:#fff;}</style></defs><title>detector-smoke-green</title><circle class="cls-1" cx="25" cy="25" r="25"/><path class="cls-2" d="M36.44,28.41H26.51a.55.55,0,0,0-.45.24A.65.65,0,0,0,26,29a.54.54,0,0,0,.56.56h4.25a4.33,4.33,0,0,1-4.12,3,4.6,4.6,0,0,1-.85-.08l-.37-.08-.21.29a4.22,4.22,0,0,1-7.43-3.82l.21-.56-.58-.16a4.54,4.54,0,0,1,.53-8.84l.35-.05.11-.35a4.66,4.66,0,0,1,9.11,1.35v.11h-1a.54.54,0,0,0-.56.56.45.45,0,0,0,.16.37.56.56,0,0,0,.4.19h9.93a.52.52,0,0,0,.4-.19A.52.52,0,0,0,37,20.9a.54.54,0,0,0-.56-.56H28.64v-.11a5.8,5.8,0,0,0-5.79-5.79,5.74,5.74,0,0,0-5.42,3.77A5.65,5.65,0,0,0,16.58,29a4.78,4.78,0,0,0-.13,1.22,5.33,5.33,0,0,0,9.48,3.35,6.51,6.51,0,0,0,.72.05,5.47,5.47,0,0,0,5.28-4.12h4.51a.54.54,0,0,0,.56-.56.46.46,0,0,0-.11-.32A.57.57,0,0,0,36.44,28.41Z"/><path class="cls-2" d="M30.58,24.48h-6.4a.56.56,0,0,0,0,1.12h9.9a.56.56,0,1,0,0-1.12Z"/></svg>