<svg id="Layer_1" data-name="Layer 1" xmlns="http://www.w3.org/2000/svg" viewBox="0 0 50 50"><defs><style>.cls-1{fill:#45b6e1;}.cls-2{fill:#fff;}</style></defs><title>detector-water-blue</title><circle class="cls-1" cx="25" cy="25" r="25"/><path class="cls-2" d="M16.32,13a2.19,2.19,0,0,0-2.14,2.16v3.37a2.11,2.11,0,0,0,2.14,2.06h9.75a1,1,0,0,1,1,.94v.79a2.05,2.05,0,0,0-1.14,1.84v.07A2.05,2.05,0,0,0,28,26.29h5.77a2.05,2.05,0,0,0,2.05-2.05v-.07a2.05,2.05,0,0,0-1.14-1.84V15.16A2,2,0,0,0,32.83,13Zm17.23,2.16v7H28.23v-.58a2.16,2.16,0,0,0-2.16-2.08H16.32a1,1,0,0,1-1-.93V15.16a1.08,1.08,0,0,1,1-1H32.83C33.35,14.14,33.54,14.67,33.54,15.16Zm1.14,9v.07a.91.91,0,0,1-.91.91H28a.91.91,0,0,1-.91-.91v-.07a.91.91,0,0,1,.91-.91h5.77A.91.91,0,0,1,34.68,24.16Zm-2.55,3.19a.54.54,0,0,0-.33.7s.2.85-.89,2.89a20.93,20.93,0,0,1-1.36,2.18,3.59,3.59,0,0,0-.68,1.7A2.42,2.42,0,0,0,31.47,37a2.58,2.58,0,0,0,2.48-1.52,5.82,5.82,0,0,0,.39-2.25,23.07,23.07,0,0,0-1.45-5.42l-.06-.07,0-.08h0a.61.61,0,0,0-.49-.33A.48.48,0,0,0,32.13,27.35Zm.75.42V27.7l0,0Zm.32,5.46a4.7,4.7,0,0,1-.32,1.86,1.46,1.46,0,0,1-1.41.77c-.79,0-1.46-.47-1.46-1a2.72,2.72,0,0,1,.46-1.06,22.27,22.27,0,0,0,1.45-2.3,12.2,12.2,0,0,0,.61-1.3A13.32,13.32,0,0,1,33.2,33.23Z"/></svg>