<svg id="Layer_1" data-name="Layer 1" xmlns="http://www.w3.org/2000/svg" viewBox="0 0 50 50"><defs><style>.cls-1{fill:#f49d37;}.cls-2{fill:#fff;}</style></defs><title>detector-burglary-yellow</title><circle class="cls-1" cx="25" cy="25" r="25"/><path class="cls-2" d="M20.06,33.8a3.7,3.7,0,0,1-2.19-.71l0,0a2.15,2.15,0,0,1-.89-1.74V28.77a.57.57,0,0,1,.43-.56v0l.15,0,2.14.39.23,0a28.14,28.14,0,0,0,10.2,0l2.29-.42h.11a.57.57,0,0,1,.57.57v2.55a2.16,2.16,0,0,1-.89,1.74l0,0h-.05a3.73,3.73,0,0,1-2.15.68,3.67,3.67,0,0,1-1.5-.32L25,32l-3.43,1.52A3.7,3.7,0,0,1,20.06,33.8Zm4.94-3a.56.56,0,0,1,.23,0l3.66,1.63a2.58,2.58,0,0,0,2.57-.27l0,0a1,1,0,0,0,.42-.81V29.46l-1.61.3a29.3,29.3,0,0,1-10.61,0l-1.61-.3v1.86a1,1,0,0,0,.41.81l0,0a2.58,2.58,0,0,0,2.57.27l3.66-1.63A.56.56,0,0,1,25,30.76Z"/><path class="cls-2" d="M29.87,31.39l.16-.3-.63.1Z"/><path class="cls-2" d="M20.13,31.39l.46-.2-.63-.1Z"/><path class="cls-2" d="M13.56,27.1a.57.57,0,0,1-.56-.58.57.57,0,0,1,.57-.56h3.3l2.68-8.32a1.64,1.64,0,0,1,1.54-1.14,1.48,1.48,0,0,1,.77.22l1.9,1.15a2.57,2.57,0,0,0,2.48,0l1.89-1.16a1.47,1.47,0,0,1,.77-.22,1.54,1.54,0,0,1,.61.13,1.65,1.65,0,0,1,.93,1L33,26h3.38a.58.58,0,0,1,.42.17.57.57,0,0,1,.16.41.57.57,0,0,1-.57.56H13.56ZM31.84,26l-.26-.83H28.53a.57.57,0,0,1-.56-.58.57.57,0,0,1,.57-.56h2.68l-1.87-6a.48.48,0,0,0-.43-.35.36.36,0,0,0-.19.05l-1.92,1.17h0a3.72,3.72,0,0,1-3.6,0l-1.93-1.17a.36.36,0,0,0-.19-.05.48.48,0,0,0-.43.35l-1.93,6h7.09a.57.57,0,0,1,.56.58.57.57,0,0,1-.57.56H18.34l-.27.83Z"/><path class="cls-2" d="M27.17,25.13a.57.57,0,1,1,.57-.57A.57.57,0,0,1,27.17,25.13Z"/></svg>