<svg id="Layer_1" data-name="Layer 1" xmlns="http://www.w3.org/2000/svg" viewBox="0 0 14 14"><defs><style>.cls-1{fill:#b3b3b3;}</style></defs><title>detector-security</title><path class="cls-1" d="M12.66,6.37V3.07L6.92,0,1.34,3.07V6.45A7.82,7.82,0,0,0,6,13.63l.84.37,1-.4h0A7.81,7.81,0,0,0,12.66,6.37ZM7.62,13l-.72.3-.61-.26A7.22,7.22,0,0,1,1.95,6.45v-3l5-2.74,5.12,2.74V6.37A7.2,7.2,0,0,1,7.62,13Z"/><polygon class="cls-1" points="6.22 8.16 4.38 6.32 3.95 6.75 6.21 9.01 10.05 5.35 9.63 4.91 6.22 8.16"/></svg>