<svg id="Layer_1" data-name="Layer 1" xmlns="http://www.w3.org/2000/svg" viewBox="0 0 14 14"><defs><style>.cls-1{fill:#b3b3b3;}</style></defs><title>detector-energy</title><path class="cls-1" d="M7,0A.3.3,0,0,0,6.7.31V2.75a.3.3,0,1,0,.61,0h0V.31A.3.3,0,0,0,7,0ZM3,2.74a.3.3,0,0,0-.18.52l.91.91a.3.3,0,1,0,.44-.42h0l-.91-.91A.3.3,0,0,0,3,2.74Zm7.9,0a.3.3,0,0,0-.18.09l-.91.91a.3.3,0,0,0,.42.44h0l.91-.91a.3.3,0,0,0-.25-.52ZM6.38,4a.3.3,0,0,0-.26.2L4.89,7.81a.3.3,0,0,0,.19.39l.1,0h.66l-.62,2a.3.3,0,0,0,.52.29L9.05,6.9a.3.3,0,0,0-.22-.51H8l1.12-2A.3.3,0,0,0,8.83,4H6.38Zm.25.61H8.31l-1.11,2A.3.3,0,0,0,7.46,7h.68l-2,2.14L6.53,8a.3.3,0,0,0-.21-.38H5.6ZM.29,6.7a.3.3,0,0,0,0,.61H2.75a.3.3,0,0,0,0-.61H.29Zm10.94,0a.3.3,0,1,0,0,.61h2.43a.3.3,0,1,0,0-.61H11.23Zm-7.3,3a.3.3,0,0,0-.18.09l-.91.91a.3.3,0,0,0,.42.44h0l.91-.91a.3.3,0,0,0-.25-.52Zm6.08,0a.3.3,0,0,0-.18.52l.91.91a.3.3,0,1,0,.44-.42h0l-.91-.91A.3.3,0,0,0,10,9.73ZM7,10.95a.3.3,0,0,0-.27.31v2.43a.3.3,0,1,0,.61,0h0V11.26a.3.3,0,0,0-.3-.31Z"/></svg>