<svg id="Layer_1" data-name="Layer 1" xmlns="http://www.w3.org/2000/svg" viewBox="0 0 408 172"><defs><style>.cls-1,.cls-16,.cls-2,.cls-3,.cls-7{font-size:10px;}.cls-1,.cls-11,.cls-9{fill:#333;}.cls-1,.cls-16,.cls-3,.cls-7{font-family:Roboto-Regular, Roboto;}.cls-2{fill:#e7473d;font-family:Roboto-Bold, Roboto;font-weight:700;}.cls-14,.cls-3{fill:#58c386;}.cls-4{letter-spacing:0.02em;}.cls-5{letter-spacing:-0.01em;}.cls-6{letter-spacing:-0.02em;}.cls-15,.cls-7{fill:#45b6e1;}.cls-16,.cls-8{fill:#fff;}.cls-10{fill:#b3b3b3;}.cls-11{font-size:9px;font-family:Roboto-Medium, Roboto;}.cls-12{fill:none;stroke:#f2f2f2;stroke-miterlimit:10;}.cls-13{fill:#f2f2f2;}</style></defs><title>graph-claims-loss-ratio-3</title><text class="cls-1" transform="translate(41.59 141.52)">2013</text><text class="cls-1" transform="translate(123.6 141.52)">2014</text><text class="cls-1" transform="translate(205.62 141.52)">2015</text><text class="cls-1" transform="translate(287.64 141.52)">2016</text><text class="cls-1" transform="translate(369.66 141.52)">2017</text><text class="cls-2" transform="translate(13.49 166.76)">Both</text><text class="cls-3" transform="translate(241.15 166.76)">Non - sma<tspan class="cls-4" x="45.42" y="0">r</tspan><tspan x="49.05" y="0">t d</tspan><tspan class="cls-5" x="60.43" y="0">e</tspan><tspan x="65.66" y="0">vice homes (loss </tspan><tspan class="cls-6" x="143.18" y="0">r</tspan><tspan x="146.37" y="0">atio)</tspan></text><text class="cls-7" transform="translate(66 166.76)">Sma<tspan class="cls-4" x="20.14" y="0">r</tspan><tspan x="23.76" y="0">t d</tspan><tspan class="cls-5" x="35.15" y="0">e</tspan><tspan x="40.38" y="0">vice homes (loss </tspan><tspan class="cls-6" x="117.9" y="0">r</tspan><tspan x="121.09" y="0">atio)</tspan></text><circle class="cls-8" cx="5" cy="162.76" r="4.5"/><path class="cls-9" d="M5,158.76a4,4,0,1,1-4,4,4,4,0,0,1,4-4m0-1a5,5,0,1,0,5,5,5,5,0,0,0-5-5Z"/><circle class="cls-8" cx="226.15" cy="162.76" r="4.5"/><path class="cls-10" d="M226.15,158.76a4,4,0,1,1-4,4,4,4,0,0,1,4-4m0-1a5,5,0,1,0,5,5,5,5,0,0,0-5-5Z"/><circle class="cls-8" cx="51.5" cy="162.76" r="4.5"/><path class="cls-10" d="M51.5,158.76a4,4,0,1,1-4,4,4,4,0,0,1,4-4m0-1a5,5,0,1,0,5,5,5,5,0,0,0-5-5Z"/><rect class="cls-9" x="2.5" y="160.26" width="5" height="5" rx="2.5" ry="2.5"/><text class="cls-11" transform="translate(1.66 122.47)">56</text><text class="cls-11" transform="translate(1.66 7.7)">68</text><line class="cls-12" x1="405.83" y1="124.8" x2="1.13" y2="124.8"/><line class="cls-12" x1="405.83" y1="8.59" x2="1.13" y2="8.59"/><text class="cls-11" transform="translate(1.66 26.83)">66</text><line class="cls-12" x1="405.83" y1="27.96" x2="1.13" y2="27.96"/><text class="cls-11" transform="translate(1.66 45.96)">64</text><line class="cls-12" x1="405.83" y1="47.33" x2="1.13" y2="47.33"/><text class="cls-11" transform="translate(1.66 65.08)">62</text><line class="cls-12" x1="405.83" y1="66.7" x2="1.13" y2="66.7"/><text class="cls-11" transform="translate(1.66 84.21)">60</text><line class="cls-12" x1="405.83" y1="86.06" x2="1.13" y2="86.06"/><text class="cls-11" transform="translate(1.66 103.34)">58</text><line class="cls-12" x1="405.83" y1="105.43" x2="1.13" y2="105.43"/><rect class="cls-13" x="5.74" y="61.52" width="115.87" height="10" transform="translate(-2.85 130.2) rotate(-90)"/><rect class="cls-14" x="15.96" y="71.75" width="95.42" height="10" transform="translate(-13.07 140.42) rotate(-90)"/><rect class="cls-13" x="-14.35" y="61.52" width="115.86" height="10" transform="translate(-22.94 110.11) rotate(-90)"/><rect class="cls-15" x="-0.15" y="75.72" width="87.47" height="10" transform="translate(-37.14 124.31) rotate(-90)"/><rect class="cls-13" x="88.17" y="61.52" width="115.86" height="10" transform="translate(79.58 212.63) rotate(-90)"/><rect class="cls-14" x="95.79" y="69.14" width="100.64" height="10" transform="translate(71.97 220.24) rotate(-90)"/><rect class="cls-13" x="68.17" y="61.52" width="115.86" height="10" transform="translate(59.58 192.63) rotate(-90)"/><rect class="cls-15" x="88.12" y="81.47" width="75.97" height="10" transform="translate(39.63 212.58) rotate(-90)"/><rect class="cls-13" x="169.23" y="61.52" width="115.86" height="10" transform="translate(160.64 293.69) rotate(-90)"/><rect class="cls-14" x="180.86" y="73.15" width="92.62" height="10" transform="translate(149.02 305.31) rotate(-90)"/><rect class="cls-13" x="149.23" y="61.52" width="115.86" height="10" transform="translate(140.64 273.69) rotate(-90)"/><rect class="cls-15" x="175.82" y="88.11" width="62.7" height="10" transform="translate(114.06 300.27) rotate(-90)"/><rect class="cls-13" x="251.56" y="61.52" width="115.86" height="10" transform="translate(242.97 376.02) rotate(-90)"/><rect class="cls-14" x="259.18" y="69.14" width="100.64" height="10" transform="translate(235.36 383.63) rotate(-90)"/><rect class="cls-13" x="231.56" y="61.52" width="115.86" height="10" transform="translate(222.97 356.02) rotate(-90)"/><rect class="cls-15" x="262.4" y="92.36" width="54.18" height="10" transform="translate(192.13 386.86) rotate(-90)"/><rect class="cls-13" x="336.73" y="61.52" width="115.86" height="10" transform="translate(328.14 461.18) rotate(-90)"/><rect class="cls-14" x="348.35" y="73.15" width="92.62" height="10" transform="translate(316.51 472.81) rotate(-90)"/><rect class="cls-13" x="316.73" y="61.52" width="115.86" height="10" transform="translate(308.14 441.18) rotate(-90)"/><rect class="cls-15" x="357.4" y="102.2" width="34.52" height="10" transform="translate(267.46 481.86) rotate(-90)"/><polygon class="cls-9" points="141.1 42.65 129.94 42.65 125.77 45.32 121.77 42.65 112.99 42.65 112.99 28.65 141.1 28.65 141.1 42.65"/><text class="cls-16" transform="translate(117.25 39.75)">63.9</text></svg>