<svg id="Layer_1" data-name="Layer 1" xmlns="http://www.w3.org/2000/svg" viewBox="0 0 290 376"><defs><style>.cls-1{font-size:12px;font-family:Roboto-Bold, Roboto;font-weight:700;}.cls-1,.cls-14,.cls-19,.cls-6{fill:#333;}.cls-2{letter-spacing:-0.01em;}.cls-3{letter-spacing:-0.01em;}.cls-4{letter-spacing:0.01em;}.cls-5{letter-spacing:-0.01em;}.cls-20,.cls-6{font-size:10px;font-family:Roboto-Regular, Roboto;}.cls-7{fill:#f06088;}.cls-8{letter-spacing:-0.01em;}.cls-9{fill:#45b6e1;}.cls-10{letter-spacing:-0.02em;}.cls-11{letter-spacing:-0.05em;}.cls-12{fill:#58c386;}.cls-13{fill:#f49d37;}.cls-14{font-size:9px;font-family:Roboto-Medium, Roboto;}.cls-15{fill:none;stroke:#f2f2f2;stroke-miterlimit:10;}.cls-16{letter-spacing:-0.02em;}.cls-17{fill:#f2f2f2;}.cls-18{fill:#e6e6e6;}.cls-20{fill:#fff;}</style></defs><title>graph-ms-device-maintenance</title><text class="cls-1" transform="translate(31.93 301.33)">Smo<tspan class="cls-2" x="24.55" y="0">k</tspan><tspan x="30.84" y="0">e / Co</tspan><tspan x="5.58" y="14">detec</tspan><tspan class="cls-3" x="35.63" y="14">t</tspan><tspan x="39.51" y="14">ors</tspan></text><text class="cls-1" transform="translate(225.01 301.33)">Security / <tspan x="-7.27" y="14">Su</tspan><tspan class="cls-4" x="6.82" y="14">r</tspan><tspan class="cls-5" x="11.3" y="14">v</tspan><tspan x="17.29" y="14">eillance </tspan><tspan x="7.82" y="28">system</tspan></text><text class="cls-6" transform="translate(16.4 354.86)">App Updates</text><rect class="cls-7" x="1.4" y="347.86" width="6" height="6" rx="3" ry="3"/><text class="cls-6" transform="translate(102.23 354.86)">Batte<tspan class="cls-4" x="23.5" y="0">r</tspan><tspan x="26.97" y="0">y Li</tspan><tspan class="cls-8" x="41.98" y="0">f</tspan><tspan x="45.34" y="0">e</tspan></text><rect class="cls-9" x="87.23" y="347.86" width="6" height="6" rx="3" ry="3"/><text class="cls-6" transform="translate(188.14 354.86)"><tspan class="cls-5">P</tspan><tspan x="6.25" y="0">eriodic</tspan><tspan class="cls-10" x="36.36" y="0"> </tspan><tspan class="cls-11" x="38.64" y="0">T</tspan><tspan x="44.12" y="0">esting</tspan></text><rect class="cls-12" x="173.14" y="347.86" width="6" height="6" rx="3" ry="3"/><text class="cls-6" transform="translate(16.4 372.43)">Network Configutation</text><rect class="cls-13" x="1.4" y="365.43" width="6" height="6" rx="3" ry="3"/><text class="cls-14" transform="translate(0.99 276.8)">0%</text><text class="cls-14" transform="translate(0.99 246.9)">10%</text><text class="cls-14" transform="translate(0.99 217)">20%</text><text class="cls-14" transform="translate(0.99 187.1)">30%</text><text class="cls-14" transform="translate(0.99 157.2)">40%</text><text class="cls-14" transform="translate(0.99 127.3)">60%</text><text class="cls-14" transform="translate(0.99 97.4)">70%</text><text class="cls-14" transform="translate(0.99 67.5)">80%</text><text class="cls-14" transform="translate(0.99 37.6)">90%</text><text class="cls-14" transform="translate(0.99 7.7)">100%</text><line class="cls-15" x1="289.53" y1="281.13" x2="0.47" y2="281.13"/><line class="cls-15" x1="289.53" y1="10.59" x2="0.47" y2="10.59"/><line class="cls-15" x1="289.53" y1="40.65" x2="0.47" y2="40.65"/><line class="cls-15" x1="289.53" y1="70.71" x2="0.47" y2="70.71"/><line class="cls-15" x1="289.53" y1="100.77" x2="0.47" y2="100.77"/><line class="cls-15" x1="289.53" y1="130.83" x2="0.47" y2="130.83"/><line class="cls-15" x1="289.53" y1="160.89" x2="0.47" y2="160.89"/><line class="cls-15" x1="289.53" y1="190.95" x2="0.47" y2="190.95"/><line class="cls-15" x1="289.53" y1="221.01" x2="0.47" y2="221.01"/><line class="cls-15" x1="289.53" y1="251.07" x2="0.47" y2="251.07"/><text class="cls-1" transform="translate(129.8 301.33)"><tspan class="cls-16">W</tspan><tspan x="10.3" y="0">ater leak</tspan><tspan x="2.95" y="14">detec</tspan><tspan class="cls-3" x="32.99" y="14">t</tspan><tspan x="36.87" y="14">ors</tspan></text><rect class="cls-17" x="-77.7" y="142.59" width="270" height="6" transform="translate(-88.29 202.89) rotate(-90)"/><rect class="cls-9" x="-39.8" y="180.49" width="194.2" height="6" transform="translate(-126.19 240.79) rotate(-90)"/><rect class="cls-17" x="-65.62" y="142.59" width="270" height="6" transform="translate(-76.21 214.97) rotate(-90)"/><rect class="cls-12" x="-5.5" y="202.71" width="149.76" height="6" transform="translate(-136.33 275.09) rotate(-90)"/><rect class="cls-17" x="-53.64" y="142.59" width="270" height="6" transform="translate(-64.23 226.95) rotate(-90)"/><rect class="cls-13" x="-38.61" y="157.62" width="239.94" height="6" transform="translate(-79.26 241.98) rotate(-90)"/><rect class="cls-17" x="-89.69" y="142.59" width="270" height="6" transform="translate(-100.28 190.9) rotate(-90)"/><rect class="cls-17" x="3.6" y="142.59" width="270" height="6" transform="translate(-6.99 284.19) rotate(-90)"/><rect class="cls-7" x="41.5" y="180.49" width="194.2" height="6" transform="translate(-44.89 322.09) rotate(-90)"/><rect class="cls-17" x="15.57" y="142.59" width="270" height="6" transform="translate(4.98 296.16) rotate(-90)"/><rect class="cls-9" x="30.6" y="157.62" width="239.94" height="6" transform="translate(-10.05 311.19) rotate(-90)"/><rect class="cls-17" x="27.13" y="142.59" width="270" height="6" transform="translate(16.54 307.72) rotate(-90)"/><rect class="cls-12" x="42.16" y="157.62" width="239.94" height="6" transform="translate(1.51 322.75) rotate(-90)"/><rect class="cls-18" x="39.13" y="142.59" width="270" height="6" transform="translate(28.54 319.72) rotate(-90)"/><rect class="cls-13" x="39.13" y="142.59" width="270" height="6" transform="translate(28.54 319.72) rotate(-90)"/><rect class="cls-17" x="98.42" y="142.59" width="270" height="6" transform="translate(87.83 379.01) rotate(-90)"/><rect class="cls-7" x="158.49" y="202.66" width="149.87" height="6" transform="translate(27.76 439.08) rotate(-90)"/><rect class="cls-17" x="110.42" y="142.59" width="270" height="6" transform="translate(99.83 391.01) rotate(-90)"/><rect class="cls-17" x="122.53" y="142.59" width="270" height="6" transform="translate(111.93 403.12) rotate(-90)"/><rect class="cls-12" x="152.59" y="172.65" width="209.88" height="6" transform="translate(81.88 433.18) rotate(-90)"/><rect class="cls-17" x="134.53" y="142.59" width="270" height="6" transform="translate(123.93 415.12) rotate(-90)"/><rect class="cls-13" x="134.53" y="142.59" width="270" height="6" transform="translate(123.93 415.12) rotate(-90)"/><rect class="cls-9" x="110.42" y="142.59" width="270" height="6" transform="translate(99.83 391.01) rotate(-90)"/><polygon class="cls-19" points="149.6 82.8 143.44 82.8 139.27 85.47 135.27 82.8 127.6 82.8 127.6 68.8 149.6 68.8 149.6 82.8"/><text class="cls-20" transform="translate(129.61 79.9)">75%</text></svg>