<svg id="Layer_1" data-name="Layer 1" xmlns="http://www.w3.org/2000/svg" viewBox="0 0 222 155"><defs><style>.cls-1,.cls-15{fill:#58c386;}.cls-1,.cls-2,.cls-3{opacity:0.2;}.cls-14,.cls-2{fill:#662d91;}.cls-13,.cls-3{fill:#f49d37;}.cls-4{fill:#fff;}.cls-5{font-size:10px;fill:#333;font-family:Roboto-Regular, Roboto;}.cls-10,.cls-11,.cls-6,.cls-7,.cls-8,.cls-9{fill:none;stroke-miterlimit:10;}.cls-6,.cls-9{stroke:#f49d37;}.cls-11,.cls-7{stroke:#58c386;}.cls-10,.cls-8{stroke:#662d91;}.cls-10,.cls-11,.cls-9{stroke-width:3px;}.cls-12{letter-spacing:0.02em;}</style></defs><title>graph-claims-vendors-2</title><path class="cls-1" d="M119.28,67.5l.18-65h-.18a65,65,0,0,0-28.2,6.44Z"/><path class="cls-2" d="M119.28,67.5,90.84,9A65,65,0,0,0,56.47,50.78Z"/><path class="cls-3" d="M119.28,67.5,56.48,50.72A65,65,0,1,0,119.41,2.5Z"/><circle class="cls-4" cx="119.28" cy="67.5" r="53.52" transform="translate(-1.23 2.22) rotate(-1.06)"/><text class="cls-5" transform="translate(203.43 19.98)">78%</text><polyline class="cls-6" points="169.8 28.57 183.9 16.64 194.68 16.64"/><text class="cls-5" transform="translate(21.75 9.98)">8%</text><line class="cls-7" x1="100.66" y1="6.64" x2="44.45" y2="6.64"/><text class="cls-5" transform="translate(21.75 39.27)">23%</text><polyline class="cls-8" points="46.61 35.93 56.95 35.93 60.3 40.2"/><path class="cls-9" d="M56.48,50.72A65,65,0,1,0,119.41,2.5"/><path class="cls-10" d="M90.84,9A65,65,0,0,0,56.47,50.78"/><path class="cls-11" d="M119.46,2.5h-.18a65,65,0,0,0-28.2,6.44"/><text class="cls-5" transform="translate(10.56 152.29)">Leaksma<tspan class="cls-12" x="40.55" y="0">r</tspan><tspan x="44.17" y="0">t</tspan></text><circle class="cls-13" cx="3" cy="149.57" r="3"/><text class="cls-5" transform="translate(88.28 152.29)">Roost</text><circle class="cls-14" cx="80.72" cy="149.57" r="3"/><text class="cls-5" transform="translate(146.33 152.29)">Monnitt</text><circle class="cls-15" cx="138.77" cy="149.57" r="3"/></svg>