<svg xmlns="http://www.w3.org/2000/svg" viewBox="0 0 408 172"><defs><style>.cls-1{isolation:isolate;}.cls-11,.cls-2,.cls-23,.cls-6,.cls-7{font-size:10px;}.cls-13,.cls-2,.cls-20{fill:#333;}.cls-11,.cls-2,.cls-23,.cls-7{font-family:Roboto-Regular, Roboto;}.cls-3{letter-spacing:-0.01em;}.cls-4{letter-spacing:-0.01em;}.cls-5{letter-spacing:-0.01em;}.cls-6{fill:#e7473d;font-family:Roboto-Bold, Roboto;font-weight:700;}.cls-15,.cls-7{fill:#58c386;}.cls-8{letter-spacing:-0.02em;}.cls-9{letter-spacing:0.02em;}.cls-10{letter-spacing:-0.01em;}.cls-11,.cls-16,.cls-22{fill:#45b6e1;}.cls-12,.cls-23{fill:#fff;}.cls-14{fill:#b3b3b3;}.cls-15,.cls-16{opacity:0.2;}.cls-17,.cls-18,.cls-21{fill:none;stroke-miterlimit:10;}.cls-17{stroke:#58c386;}.cls-18{stroke:#45b6e1;}.cls-19{mix-blend-mode:multiply;}.cls-20{font-size:9px;font-family:Roboto-Medium, Roboto;}.cls-21{stroke:#f2f2f2;}</style></defs><title>graph-claims-loss-ratio-4</title><g class="cls-1"><g id="Layer_1" data-name="Layer 1"><text class="cls-2" transform="translate(24.96 143.52)">Jan</text><text class="cls-2" transform="translate(58.25 143.52)"><tspan class="cls-3">F</tspan><tspan x="5.42" y="0">eb</tspan></text><text class="cls-2" transform="translate(90.86 143.52)">Mar</text><text class="cls-2" transform="translate(125.1 143.52)">Apr</text><text class="cls-2" transform="translate(156.67 143.52)">M<tspan class="cls-4" x="8.73" y="0">a</tspan><tspan x="14.1" y="0">y</tspan></text><text class="cls-2" transform="translate(191.03 143.52)">Jun</text><text class="cls-2" transform="translate(223.43 143.52)">July</text><text class="cls-2" transform="translate(256.94 143.52)"><tspan class="cls-5">A</tspan><tspan x="6.47" y="0">ug</tspan></text><text class="cls-2" transform="translate(290.54 143.52)">Sep</text><text class="cls-2" transform="translate(324.49 143.52)">Oct</text><text class="cls-2" transform="translate(356.6 143.52)">N<tspan class="cls-4" x="7.13" y="0">o</tspan><tspan x="12.76" y="0">v</tspan></text><text class="cls-2" transform="translate(390.07 143.52)">Dec</text><text class="cls-6" transform="translate(14.46 168.76)">Both</text><text class="cls-7" transform="translate(236.12 168.76)">Loss <tspan class="cls-8" x="23.87" y="0">r</tspan><tspan x="27.06" y="0">atio (Non - sma</tspan><tspan class="cls-9" x="95.21" y="0">r</tspan><tspan x="98.84" y="0">t d</tspan><tspan class="cls-10" x="110.22" y="0">e</tspan><tspan x="115.45" y="0">vice homes)</tspan></text><text class="cls-11" transform="translate(61.79 168.76)">Loss <tspan class="cls-8" x="23.87" y="0">r</tspan><tspan x="27.06" y="0">atio (Sma</tspan><tspan class="cls-9" x="69.93" y="0">r</tspan><tspan x="73.55" y="0">t d</tspan><tspan class="cls-10" x="84.94" y="0">e</tspan><tspan x="90.17" y="0">vice homes)</tspan></text><circle class="cls-12" cx="5.96" cy="164.76" r="4.5"/><path class="cls-13" d="M6,160.76a4,4,0,1,1-4,4,4,4,0,0,1,4-4m0-1a5,5,0,1,0,5,5,5,5,0,0,0-5-5Z"/><circle class="cls-12" cx="223.12" cy="164.76" r="4.5"/><path class="cls-14" d="M223.12,160.76a4,4,0,1,1-4,4,4,4,0,0,1,4-4m0-1h0a5,5,0,0,0,0,10h0a5,5,0,0,0,0-10Z"/><circle class="cls-12" cx="51.46" cy="164.76" r="4.5"/><path class="cls-14" d="M51.46,160.76a4,4,0,1,1-4,4,4,4,0,0,1,4-4m0-1a5,5,0,1,0,5,5,5,5,0,0,0-5-5Z"/><rect class="cls-13" x="3.46" y="162.26" width="5" height="5" rx="2.5" ry="2.5"/><path class="cls-15" d="M.71,26.44c5-1.5,35.58-8.72,63.58,1.89s73,18.61,106.5,16.11,44-15.71,64.5-9.11,50.5,5.53,67.5-4.68,24-11.44,37-3.83,24.09,9.6,47-.39c12.5-5.45,20.5-4.52,20.5-4.52V126.46H.71Z"/><path class="cls-16" d="M.71,76.56S43.79,55.44,59.29,64.94s21.5,26.24,55.5,11.12,61,1.76,80.5-2.18,25-8.12,47.5-1.78,69-19.16,91.5-7.16,23,14.49,40-3.26,25-27,33-27.85v93H.71Z"/><path class="cls-17" d="M1.79,26.44c5-1.5,34.5-8.72,62.5,1.89s73,18.61,106.5,16.11,44-15.71,64.5-9.11,50.5,5.53,67.5-4.68,24-11.44,37-3.83,24.09,9.6,47-.39c12.5-5.45,20.5-4.52,20.5-4.52"/><path class="cls-18" d="M1.79,76.56s42-21.12,57.5-11.62,21.5,26.24,55.5,11.12,61,1.76,80.5-2.18,25-8.12,47.5-1.78,69-19.16,91.5-7.16,23,14.49,40-3.26,25-27,33-27.85"/><g class="cls-19"><text class="cls-20" transform="translate(2.62 122.47)">0</text><text class="cls-20" transform="translate(2.62 7.7)">100</text><line class="cls-21" x1="406.8" y1="126.8" x2="2.1" y2="126.8"/><line class="cls-21" x1="406.8" y1="10.59" x2="2.1" y2="10.59"/><text class="cls-20" transform="translate(2.62 30.65)">80</text><line class="cls-21" x1="406.8" y1="33.83" x2="2.1" y2="33.83"/><text class="cls-20" transform="translate(2.62 53.61)">60</text><line class="cls-21" x1="406.8" y1="57.08" x2="2.1" y2="57.08"/><text class="cls-20" transform="translate(2.62 76.56)">40</text><line class="cls-21" x1="406.8" y1="80.32" x2="2.1" y2="80.32"/><text class="cls-20" transform="translate(2.62 99.52)">20</text><line class="cls-21" x1="406.8" y1="103.56" x2="2.1" y2="103.56"/></g><circle class="cls-22" cx="65.55" cy="68.88" r="1.77"/><circle class="cls-22" cx="98.86" cy="80.91" r="1.77"/><circle class="cls-22" cx="165.5" cy="71.2" r="1.77"/><circle class="cls-22" cx="198.81" cy="73.34" r="1.77"/><circle class="cls-22" cx="265.45" cy="71.43" r="1.77"/><circle class="cls-22" cx="332.08" cy="64.42" r="1.77"/><circle class="cls-22" cx="232.13" cy="69.97" r="1.77"/><circle class="cls-22" cx="298.76" cy="63.41" r="1.77"/><circle class="cls-22" cx="365.4" cy="70.14" r="1.77"/><circle class="cls-22" cx="398.71" cy="37.91" r="1.77"/><circle class="cls-22" cx="132.18" cy="70.66" r="1.77"/><circle class="cls-22" cx="32.23" cy="64.86" r="1.77"/><polygon class="cls-13" points="80.46 61.52 70.29 61.52 66.13 64.19 62.13 61.52 52.46 61.52 52.46 47.52 80.46 47.52 80.46 61.52"/><text class="cls-23" transform="translate(56.47 58.62)">79.3</text></g></g></svg>