<svg id="Layer_1" data-name="Layer 1" xmlns="http://www.w3.org/2000/svg" viewBox="0 0 32 27"><defs><style>.cls-1{fill:#999;}</style></defs><title>graph-home</title><path class="cls-1" d="M25.26,14V25H19.7c-1.18,0-1.18,1.85,0,1.85h6.49a.93.93,0,0,0,.93-.93V14A1,1,0,0,0,25.26,14Z"/><path class="cls-1" d="M31.67,12.15Q24.08,6.28,16.46.4a1,1,0,0,0-1.35,0L.33,12.15c-1,.76.42,2.11,1.35,1.35L15.8,2.28Q23,7.89,30.32,13.5C31.29,14.22,32.63,12.91,31.67,12.15Z"/><path class="cls-1" d="M10.18,14.34a8.37,8.37,0,0,1,11.67,0c.88.84,2.23-.51,1.35-1.35A10.33,10.33,0,0,0,8.84,13C8,13.84,9.3,15.18,10.18,14.34Z"/><path class="cls-1" d="M20.12,16.24a5.85,5.85,0,0,0-8.13,0c-.93.8.42,2.15,1.31,1.35a3.94,3.94,0,0,1,5.48,0C19.66,18.43,21,17.08,20.12,16.24Z"/><path class="cls-1" d="M15.7,18.89a1.6,1.6,0,0,0-1.1,2.77V25h-8v-11c.08-1.22-1.81-1.22-1.81,0v12a.93.93,0,0,0,.93.93h9.86a.93.93,0,0,0,.93-.93v-4a1.6,1.6,0,0,0-.8-3Z"/></svg>