<svg xmlns="http://www.w3.org/2000/svg" viewBox="0 0 406 181"><defs><style>.cls-1{isolation:isolate;}.cls-11,.cls-13,.cls-16,.cls-2,.cls-24,.cls-3,.cls-4,.cls-9{font-size:10px;}.cls-2,.cls-27,.cls-7{fill:#333;}.cls-11,.cls-13,.cls-16,.cls-2,.cls-24,.cls-4,.cls-9{font-family:Roboto-Regular, Roboto;}.cls-3{fill:#e7473d;font-family:Roboto-Bold, Roboto;font-weight:700;}.cls-4{fill:#f15a24;}.cls-5{letter-spacing:-0.01em;}.cls-24,.cls-6{fill:#fff;}.cls-8{fill:#b3b3b3;}.cls-23,.cls-28,.cls-9{fill:#fbb03b;}.cls-10{letter-spacing:-0.02em;}.cls-11{fill:#45b6e1;}.cls-12{letter-spacing:0.02em;}.cls-13{fill:#58c386;}.cls-14{letter-spacing:0.01em;}.cls-15{letter-spacing:-0.01em;}.cls-16{fill:#662d91;}.cls-17{letter-spacing:-0.01em;}.cls-18,.cls-19,.cls-20,.cls-21,.cls-22,.cls-26{fill:none;stroke-miterlimit:10;}.cls-18{stroke:#29abe2;}.cls-19{stroke:#f15a24;}.cls-20{stroke:#fbb03b;}.cls-21{stroke:#39b54a;}.cls-22{stroke:#662d91;}.cls-25{mix-blend-mode:multiply;}.cls-26{stroke:#f2f2f2;}.cls-27{font-size:9px;font-family:Roboto-Medium, Roboto;}.cls-28{opacity:0.1;}</style></defs><title>graph-adoption-rate</title><g class="cls-1"><g id="Layer_1" data-name="Layer 1"><text class="cls-2" transform="translate(30.39 131.63)">2013</text><text class="cls-2" transform="translate(114.67 131.63)">2014</text><text class="cls-2" transform="translate(198.95 131.63)">2015</text><text class="cls-2" transform="translate(283.23 131.63)">2016</text><text class="cls-2" transform="translate(367.51 131.63)">2017</text><text class="cls-3" transform="translate(16.36 160.47)">All</text><text class="cls-4" transform="translate(62.87 160.47)">Smo<tspan class="cls-5" x="20.4" y="0">k</tspan><tspan x="25.37" y="0">e / Co detec</tspan><tspan class="cls-5" x="79.17" y="0">t</tspan><tspan x="82.33" y="0">ors</tspan></text><circle class="cls-6" cx="7.36" cy="156.47" r="4.5"/><path class="cls-7" d="M7.36,152.47a4,4,0,1,1-4,4,4,4,0,0,1,4-4m0-1a5,5,0,1,0,5,5,5,5,0,0,0-5-5Z"/><circle class="cls-6" cx="52.87" cy="156.47" r="4.5"/><path class="cls-8" d="M52.87,152.47a4,4,0,1,1-4,4,4,4,0,0,1,4-4m0-1h0a5,5,0,0,0,0,10h0a5,5,0,0,0,0-10Z"/><text class="cls-9" transform="translate(193.86 160.47)"><tspan class="cls-10">W</tspan><tspan x="8.71" y="0">ater leak detec</tspan><tspan class="cls-5" x="74.02" y="0">t</tspan><tspan x="77.19" y="0">ors</tspan></text><text class="cls-11" transform="translate(318.53 160.47)">Sma<tspan class="cls-12" x="20.14" y="0">r</tspan><tspan x="23.76" y="0">t water meter</tspan></text><circle class="cls-6" cx="183.86" cy="156.47" r="4.5"/><path class="cls-8" d="M183.86,152.47a4,4,0,1,1-4,4,4,4,0,0,1,4-4m0-1h0a5,5,0,0,0,0,10h0a5,5,0,1,0,0-10Z"/><text class="cls-13" transform="translate(17.36 178.09)">Security / Su<tspan class="cls-14" x="56.3" y="0">r</tspan><tspan class="cls-15" x="59.78" y="0">v</tspan><tspan x="64.56" y="0">eillance system</tspan></text><circle class="cls-6" cx="7.36" cy="174.09" r="4.5"/><path class="cls-8" d="M7.36,170.09a4,4,0,1,1-4,4,4,4,0,0,1,4-4m0-1a5,5,0,1,0,5,5,5,5,0,0,0-5-5Z"/><text class="cls-16" transform="translate(193.86 178.09)">Ene<tspan class="cls-17" x="16.5" y="0">r</tspan><tspan x="19.79" y="0">gy management</tspan></text><circle class="cls-6" cx="183.86" cy="174.09" r="4.5"/><path class="cls-8" d="M183.86,170.09a4,4,0,1,1-4,4,4,4,0,0,1,4-4m0-1h0a5,5,0,0,0,0,10h0a5,5,0,1,0,0-10Z"/><circle class="cls-6" cx="310.19" cy="156.47" r="4.5"/><path class="cls-8" d="M310.19,152.47a4,4,0,1,1-4,4,4,4,0,0,1,4-4m0-1h0a5,5,0,0,0,0,10h0a5,5,0,0,0,0-10Z"/><rect class="cls-7" x="4.86" y="153.97" width="5" height="5" rx="2.5" ry="2.5"/><path class="cls-18" d="M1.72,57.75s34.8,14.3,122.8-4c154.54-32.23,229.2-22,280.2-18"/><path class="cls-19" d="M1.72,48.75s43-11,80-16.69,132.13-21,323-17"/><path class="cls-20" d="M1.72,111.73s42.1-2.19,80-8.65c44.33-7.55,141.8-31,323-23.78"/><path class="cls-21" d="M1.72,82.42S66,96.6,164.86,66.78c91.21-27.52,188.87-25.7,239.87-21.7"/><path class="cls-22" d="M1.72,72.05s43.37-6.63,80-14.3c119.3-25,254.25-25,323-19.33"/><circle class="cls-23" cx="40.36" cy="108.45" r="1.77"/><circle class="cls-23" cx="125.53" cy="94.83" r="1.77"/><circle class="cls-23" cx="211.03" cy="83.64" r="1.77"/><circle class="cls-23" cx="295.28" cy="78.09" r="1.77"/><circle class="cls-23" cx="377.51" cy="78.59" r="1.77"/><polygon class="cls-7" points="49.36 103.5 44.19 103.5 40.03 106.17 36.03 103.5 31.36 103.5 31.36 89.5 49.36 89.5 49.36 103.5"/><text class="cls-24" transform="translate(34.37 100.6)">5%</text><g class="cls-25"><line class="cls-26" x1="1.72" y1="11.08" x2="404.72" y2="11.08"/><text class="cls-27" transform="translate(1.33 7.9)">100%</text><line class="cls-26" x1="1.72" y1="32.06" x2="404.72" y2="32.06"/><text class="cls-27" transform="translate(1.33 27.92)">80%</text><line class="cls-26" x1="1.72" y1="51.42" x2="404.72" y2="51.42"/><text class="cls-27" transform="translate(1.33 48.75)">60%</text><line class="cls-26" x1="1.72" y1="72.05" x2="404.72" y2="72.05"/><text class="cls-27" transform="translate(1.33 66.78)">40%</text><line class="cls-26" x1="1.72" y1="91.18" x2="404.72" y2="91.18"/><text class="cls-27" transform="translate(1.33 86.86)">20%</text><line class="cls-26" x1="1.72" y1="111.73" x2="404.72" y2="111.73"/><text class="cls-27" transform="translate(1.33 107.42)">0%</text></g><path class="cls-28" d="M1.72,111.73s42.1-2.19,80-8.65c44.33-7.55,141.8-31,323-23.78v32.43H1.72Z"/></g></g></svg>