<svg id="Layer_1" data-name="Layer 1" xmlns="http://www.w3.org/2000/svg" viewBox="0 0 232 198"><defs><style>.cls-1,.cls-12{fill:#58c386;}.cls-1,.cls-2,.cls-3{opacity:0.2;}.cls-11,.cls-2{fill:#662d91;}.cls-10,.cls-3{fill:#f49d37;}.cls-4{fill:#fff;}.cls-13,.cls-14,.cls-15,.cls-5,.cls-6,.cls-7{fill:none;stroke-miterlimit:10;}.cls-13,.cls-5{stroke:#58c386;}.cls-5,.cls-6,.cls-7{stroke-width:3px;}.cls-15,.cls-6{stroke:#f49d37;}.cls-14,.cls-7{stroke:#662d91;}.cls-8{font-size:10px;fill:#333;font-family:Roboto-Regular, Roboto;}.cls-9{letter-spacing:-0.01em;}</style></defs><title>graph-dp-smoke-detectors-vs-customers</title><path class="cls-1" d="M115.26,67l.18-65h-.18a65,65,0,1,0,17.31,127.65Z"/><path class="cls-2" d="M115.26,67l17.2,62.68a65,65,0,0,0,45.59-79.49Z"/><path class="cls-3" d="M115.26,67,178,50A65,65,0,0,0,115.39,2Z"/><circle class="cls-4" cx="115.26" cy="67" r="53.52" transform="translate(-1.22 2.15) rotate(-1.06)"/><path class="cls-5" d="M115.44,2h-.18a65,65,0,1,0,17.31,127.65"/><path class="cls-6" d="M178,50A65,65,0,0,0,115.39,2"/><path class="cls-7" d="M132.46,129.68a65,65,0,0,0,45.59-79.49"/><text class="cls-8" transform="translate(10.56 166.25)">Pho<tspan class="cls-9" x="17.52" y="0">t</tspan><tspan x="20.69" y="0">oelectric smo</tspan><tspan class="cls-9" x="81.06" y="0">k</tspan><tspan x="86.03" y="0">e detec</tspan><tspan class="cls-9" x="118.54" y="0">t</tspan><tspan x="121.71" y="0">ors</tspan></text><circle class="cls-10" cx="3" cy="163.53" r="3"/><text class="cls-8" transform="translate(10.56 181.25)">Ionization smo<tspan class="cls-9" x="65.78" y="0">k</tspan><tspan x="70.75" y="0">e detec</tspan><tspan class="cls-9" x="103.26" y="0">t</tspan><tspan x="106.43" y="0">ors</tspan></text><circle class="cls-11" cx="3" cy="178.53" r="3"/><text class="cls-8" transform="translate(10.56 196.25)">Dual sensor smo<tspan class="cls-9" x="74.73" y="0">k</tspan><tspan x="79.7" y="0">e detec</tspan><tspan class="cls-9" x="112.21" y="0">t</tspan><tspan x="115.38" y="0">ors</tspan></text><circle class="cls-12" cx="3" cy="193.53" r="3"/><text class="cls-8" transform="translate(1.16 117.45)">55%</text><polyline class="cls-13" points="61.78 103.75 38.86 114.32 24.72 114.32"/><text class="cls-8" transform="translate(213.86 115.26)">25%</text><text class="cls-8" transform="translate(213.86 10.89)">20%</text><polyline class="cls-14" points="172.37 97.97 193.06 111.66 210.14 111.66"/><polyline class="cls-15" points="162.83 20.24 196 7.55 210.14 7.55"/></svg>