<svg id="Layer_1" data-name="Layer 1" xmlns="http://www.w3.org/2000/svg" viewBox="0 0 162 162"><defs><style>.cls-1{opacity:0.2;}.cls-2{fill:#45b6e1;}.cls-3{fill:#f49d37;}.cls-4{fill:#58c386;}.cls-5{fill:#fff;}</style></defs><title>graph-average-devices</title><g class="cls-1"><path class="cls-2" d="M81,81,81,2h0C37.67,2,2,37.69,2,81q0,2.38.14,4.76Z"/></g><g class="cls-1"><path class="cls-3" d="M81,81,2.17,85.81A79,79,0,0,0,80.94,160Z"/></g><path class="cls-4" d="M81,162v-4A77,77,0,0,0,81,4V0A81,81,0,0,1,81,162Z"/><g class="cls-1"><path class="cls-4" d="M81,2,81.1,75.1,81,160s75.9-2.57,78.92-76.79C160,4.1,81,2,81,2Z"/></g><circle class="cls-5" cx="81.02" cy="81" r="65.01"/><path class="cls-3" d="M80.94,162a81,81,0,0,1-80.76-76l4-.24A77,77,0,0,0,80.94,158Z"/><path class="cls-2" d="M.17,85.88C.08,84.26,0,82.62,0,81A81.33,81.33,0,0,1,81,0l0,4h0A77,77,0,0,0,4,81c0,1.54,0,3.1.14,4.64Z"/></svg>