<svg id="Layer_1" data-name="Layer 1" xmlns="http://www.w3.org/2000/svg" viewBox="0 0 408 172"><defs><style>.cls-1,.cls-15,.cls-2,.cls-3,.cls-6{font-size:10px;}.cls-1,.cls-10,.cls-8{fill:#333;}.cls-1,.cls-15,.cls-3,.cls-6{font-family:Roboto-Regular, Roboto;}.cls-2{fill:#e7473d;font-family:Roboto-Bold, Roboto;font-weight:700;}.cls-13,.cls-3{fill:#58c386;}.cls-4{letter-spacing:0.02em;}.cls-5{letter-spacing:-0.01em;}.cls-14,.cls-6{fill:#45b6e1;}.cls-15,.cls-7{fill:#fff;}.cls-9{fill:#b3b3b3;}.cls-10{font-size:9px;font-family:Roboto-Medium, Roboto;}.cls-11{fill:none;stroke:#f2f2f2;stroke-miterlimit:10;}.cls-12{fill:#f2f2f2;}</style></defs><title>graph-claims-loss-ratio-1</title><text class="cls-1" transform="translate(41.59 143.78)">2013</text><text class="cls-1" transform="translate(123.6 143.78)">2014</text><text class="cls-1" transform="translate(205.62 143.78)">2015</text><text class="cls-1" transform="translate(287.64 143.78)">2016</text><text class="cls-1" transform="translate(369.66 143.78)">2017</text><text class="cls-2" transform="translate(13.49 169.03)">Both</text><text class="cls-3" transform="translate(241.15 169.03)">Non - sma<tspan class="cls-4" x="45.42" y="0">r</tspan><tspan x="49.05" y="0">t d</tspan><tspan class="cls-5" x="60.43" y="0">e</tspan><tspan x="65.66" y="0">vice homes (in MN)</tspan></text><text class="cls-6" transform="translate(71.63 169.03)">Sma<tspan class="cls-4" x="20.14" y="0">r</tspan><tspan x="23.76" y="0">t d</tspan><tspan class="cls-5" x="35.15" y="0">e</tspan><tspan x="40.38" y="0">vice homes (in MN)</tspan></text><circle class="cls-7" cx="5" cy="165.03" r="4.5"/><path class="cls-8" d="M5,161a4,4,0,1,1-4,4,4,4,0,0,1,4-4m0-1a5,5,0,1,0,5,5,5,5,0,0,0-5-5Z"/><circle class="cls-7" cx="226.15" cy="165.03" r="4.5"/><path class="cls-9" d="M226.15,161a4,4,0,1,1-4,4,4,4,0,0,1,4-4m0-1a5,5,0,1,0,5,5,5,5,0,0,0-5-5Z"/><circle class="cls-7" cx="59.5" cy="165.03" r="4.5"/><path class="cls-9" d="M59.5,161a4,4,0,1,1-4,4,4,4,0,0,1,4-4m0-1a5,5,0,1,0,5,5,5,5,0,0,0-5-5Z"/><rect class="cls-8" x="2.5" y="162.53" width="5" height="5" rx="2.5" ry="2.5"/><text class="cls-10" transform="translate(1.66 122.73)">0</text><text class="cls-10" transform="translate(1.66 7.96)">1000</text><line class="cls-11" x1="405.83" y1="127.06" x2="1.13" y2="127.06"/><line class="cls-11" x1="405.83" y1="10.86" x2="1.13" y2="10.86"/><text class="cls-10" transform="translate(1.66 30.92)">800</text><line class="cls-11" x1="405.83" y1="34.1" x2="1.13" y2="34.1"/><text class="cls-10" transform="translate(1.66 53.87)">600</text><line class="cls-11" x1="405.83" y1="57.34" x2="1.13" y2="57.34"/><text class="cls-10" transform="translate(1.66 76.83)">400</text><line class="cls-11" x1="405.83" y1="80.58" x2="1.13" y2="80.58"/><text class="cls-10" transform="translate(1.66 99.78)">200</text><line class="cls-11" x1="405.83" y1="103.82" x2="1.13" y2="103.82"/><rect class="cls-12" x="5.74" y="63.79" width="115.87" height="10" transform="translate(-5.12 132.46) rotate(-90)"/><rect class="cls-13" x="14.86" y="72.91" width="97.63" height="10" transform="translate(-14.24 141.58) rotate(-90)"/><rect class="cls-12" x="-14.35" y="63.79" width="115.86" height="10" transform="translate(-25.2 112.37) rotate(-90)"/><rect class="cls-14" x="5.6" y="83.73" width="75.97" height="10" transform="translate(-45.15 132.32) rotate(-90)"/><rect class="cls-12" x="88.17" y="63.79" width="115.86" height="10" transform="translate(77.32 214.89) rotate(-90)"/><rect class="cls-13" x="95.79" y="71.4" width="100.64" height="10" transform="translate(69.7 222.51) rotate(-90)"/><rect class="cls-12" x="68.17" y="63.79" width="115.86" height="10" transform="translate(57.32 194.89) rotate(-90)"/><rect class="cls-14" x="88.12" y="83.73" width="75.97" height="10" transform="translate(37.37 214.84) rotate(-90)"/><rect class="cls-12" x="169.23" y="63.79" width="115.86" height="10" transform="translate(158.38 295.96) rotate(-90)"/><rect class="cls-13" x="176.85" y="71.4" width="100.64" height="10" transform="translate(150.77 303.57) rotate(-90)"/><rect class="cls-12" x="149.23" y="63.79" width="115.86" height="10" transform="translate(138.38 275.96) rotate(-90)"/><rect class="cls-14" x="170.74" y="85.3" width="72.85" height="10" transform="translate(116.87 297.46) rotate(-90)"/><rect class="cls-12" x="251.56" y="63.79" width="115.86" height="10" transform="translate(240.71 378.29) rotate(-90)"/><rect class="cls-13" x="259.18" y="71.4" width="100.64" height="10" transform="translate(233.1 385.9) rotate(-90)"/><rect class="cls-12" x="231.56" y="63.79" width="115.86" height="10" transform="translate(220.71 358.29) rotate(-90)"/><rect class="cls-14" x="254.81" y="87.03" width="69.38" height="10" transform="translate(197.47 381.53) rotate(-90)"/><rect class="cls-12" x="336.73" y="63.79" width="115.86" height="10" transform="translate(325.87 463.45) rotate(-90)"/><rect class="cls-13" x="344.34" y="71.4" width="100.64" height="10" transform="translate(318.26 471.06) rotate(-90)"/><rect class="cls-12" x="316.73" y="63.79" width="115.86" height="10" transform="translate(305.87 443.45) rotate(-90)"/><rect class="cls-14" x="341.34" y="88.4" width="66.64" height="10" transform="translate(281.26 468.06) rotate(-90)"/><polygon class="cls-8" points="142.1 44.92 129.94 44.92 125.77 47.58 121.77 44.92 110.11 44.92 110.11 30.92 142.1 30.92 142.1 44.92"/><text class="cls-15" transform="translate(112.99 42.02)">638.2</text></svg>