<svg id="Layer_1" data-name="Layer 1" xmlns="http://www.w3.org/2000/svg" viewBox="0 0 406 192"><defs><style>.cls-1,.cls-13,.cls-2,.cls-3,.cls-4{font-size:10px;}.cls-1,.cls-6,.cls-8{fill:#333;}.cls-1,.cls-13,.cls-3,.cls-4{font-family:Roboto-Regular, Roboto;}.cls-2{fill:#e7473d;font-family:Roboto-Bold, Roboto;font-weight:700;}.cls-11,.cls-3{fill:#58c386;}.cls-12,.cls-4{fill:#45b6e1;}.cls-13,.cls-5{fill:#fff;}.cls-7{fill:#b3b3b3;}.cls-8{font-size:9px;font-family:Roboto-Medium, Roboto;}.cls-9{fill:none;stroke:#f2f2f2;stroke-miterlimit:10;}.cls-10{fill:#f2f2f2;}</style></defs><title>graph-sensor-adoption</title><text class="cls-1" transform="translate(41.67 163.52)">2013</text><text class="cls-1" transform="translate(123.69 163.52)">2014</text><text class="cls-1" transform="translate(205.71 163.52)">2015</text><text class="cls-1" transform="translate(287.73 163.52)">2016</text><text class="cls-1" transform="translate(369.74 163.52)">2017</text><text class="cls-2" transform="translate(13.58 188.76)">Both</text><text class="cls-3" transform="translate(155.74 188.76)">Sensor</text><text class="cls-4" transform="translate(69.42 188.76)">Non-sensor</text><circle class="cls-5" cx="5.08" cy="184.76" r="4.5"/><path class="cls-6" d="M5.08,180.76a4,4,0,1,1-4,4,4,4,0,0,1,4-4m0-1h0a5,5,0,1,0,0,10h0a5,5,0,0,0,0-10Z"/><circle class="cls-5" cx="146.24" cy="184.76" r="4.5"/><path class="cls-7" d="M146.24,180.76a4,4,0,1,1-4,4,4,4,0,0,1,4-4m0-1a5,5,0,1,0,5,5,5,5,0,0,0-5-5Z"/><circle class="cls-5" cx="59.58" cy="184.76" r="4.5"/><path class="cls-7" d="M59.58,180.76a4,4,0,1,1-4,4,4,4,0,0,1,4-4m0-1h0a5,5,0,0,0,0,10h0a5,5,0,1,0,0-10Z"/><rect class="cls-6" x="2.58" y="182.26" width="5" height="5" rx="2.5" ry="2.5"/><text class="cls-8" transform="translate(1.74 142.47)">0%</text><text class="cls-8" transform="translate(1.74 7.7)">100%</text><line class="cls-9" x1="405.92" y1="146.8" x2="1.22" y2="146.8"/><line class="cls-9" x1="405.92" y1="10.59" x2="1.22" y2="10.59"/><text class="cls-8" transform="translate(1.74 34.65)">80%</text><line class="cls-9" x1="405.92" y1="37.83" x2="1.22" y2="37.83"/><text class="cls-8" transform="translate(1.74 61.61)">60%</text><line class="cls-9" x1="405.92" y1="65.08" x2="1.22" y2="65.08"/><text class="cls-8" transform="translate(1.74 88.56)">40%</text><line class="cls-9" x1="405.92" y1="92.32" x2="1.22" y2="92.32"/><text class="cls-8" transform="translate(1.74 115.52)">20%</text><line class="cls-9" x1="405.92" y1="119.56" x2="1.22" y2="119.56"/><rect class="cls-10" x="-4.18" y="73.52" width="135.86" height="10" transform="translate(-14.77 142.28) rotate(-90)"/><rect class="cls-11" x="57.75" y="135.45" width="12.01" height="10" transform="translate(-76.7 204.21) rotate(-90)"/><rect class="cls-10" x="-24.26" y="73.52" width="135.86" height="10" transform="translate(-34.86 122.19) rotate(-90)"/><rect class="cls-12" x="-17.3" y="80.48" width="121.94" height="10" transform="translate(-41.82 129.15) rotate(-90)"/><rect class="cls-10" x="78.26" y="73.52" width="135.86" height="10" transform="translate(67.66 224.71) rotate(-90)"/><rect class="cls-11" x="136.34" y="131.61" width="19.69" height="10" transform="translate(9.58 282.8) rotate(-90)"/><rect class="cls-10" x="58.26" y="73.52" width="135.86" height="10" transform="translate(47.66 204.71) rotate(-90)"/><rect class="cls-12" x="68.95" y="84.22" width="114.48" height="10" transform="translate(36.97 215.41) rotate(-90)"/><rect class="cls-10" x="159.32" y="73.52" width="135.86" height="10" transform="translate(148.73 305.77) rotate(-90)"/><rect class="cls-11" x="215.39" y="129.59" width="23.73" height="10" transform="translate(92.66 361.84) rotate(-90)"/><rect class="cls-10" x="139.32" y="73.52" width="135.86" height="10" transform="translate(128.73 285.77) rotate(-90)"/><rect class="cls-12" x="151.98" y="86.19" width="110.54" height="10" transform="translate(116.06 298.44) rotate(-90)"/><rect class="cls-10" x="241.65" y="73.52" width="135.86" height="10" transform="translate(231.06 388.1) rotate(-90)"/><rect class="cls-11" x="293.8" y="125.67" width="31.56" height="10" transform="translate(178.91 440.25) rotate(-90)"/><rect class="cls-10" x="221.65" y="73.52" width="135.86" height="10" transform="translate(211.06 368.1) rotate(-90)"/><rect class="cls-12" x="237.33" y="89.2" width="104.5" height="10" transform="translate(195.38 383.78) rotate(-90)"/><rect class="cls-10" x="326.81" y="73.52" width="135.86" height="10" transform="translate(316.22 473.27) rotate(-90)"/><rect class="cls-11" x="374.97" y="121.68" width="39.55" height="10" transform="translate(268.06 521.43) rotate(-90)"/><rect class="cls-10" x="306.81" y="73.52" width="135.86" height="10" transform="translate(296.22 453.27) rotate(-90)"/><rect class="cls-12" x="327.1" y="93.81" width="95.29" height="10" transform="translate(275.93 473.56) rotate(-90)"/><polygon class="cls-6" points="158.19 121.74 150.02 121.74 145.85 124.4 141.85 121.74 134.19 121.74 134.19 107.74 158.19 107.74 158.19 121.74"/><text class="cls-13" transform="translate(136.2 118.84)">15%</text></svg>