<svg id="Layer_1" data-name="Layer 1" xmlns="http://www.w3.org/2000/svg" viewBox="0 0 406 450"><defs><style>.cls-1,.cls-15{font-size:10px;font-family:Roboto-Regular, Roboto;}.cls-1,.cls-14,.cls-8{fill:#333;}.cls-2{letter-spacing:-0.01em;}.cls-3{letter-spacing:-0.02em;}.cls-4{letter-spacing:-0.01em;}.cls-5{letter-spacing:0.01em;}.cls-6{letter-spacing:0.02em;}.cls-7{letter-spacing:-0.01em;}.cls-8{font-size:9px;font-family:Roboto-Medium, Roboto;}.cls-9{fill:none;stroke:#f2f2f2;stroke-miterlimit:10;}.cls-10{fill:#f2f2f2;}.cls-11{fill:#45b6e1;}.cls-12{fill:#f49d37;}.cls-13{fill:#58c386;}.cls-15{fill:#fff;}</style></defs><title>graph-claims-notification-1</title><text class="cls-1" transform="translate(41.83 416.46)">Smo<tspan class="cls-2" x="20.4" y="0">k</tspan><tspan x="25.37" y="0">e / CO detection</tspan></text><text class="cls-1" transform="translate(171 416.46)"><tspan class="cls-3">W</tspan><tspan x="8.71" y="0">ater leak detection</tspan></text><text class="cls-1" transform="translate(304.07 416.46)">Bu<tspan class="cls-4" x="11.74" y="0">r</tspan><tspan x="15.03" y="0">gla</tspan><tspan class="cls-5" x="28.51" y="0">r</tspan><tspan x="31.98" y="0">y detection</tspan></text><text class="cls-1" transform="translate(108.87 446.71)">Notification f<tspan class="cls-2" x="57.96" y="0">r</tspan><tspan x="61.25" y="0">om cus</tspan><tspan class="cls-2" x="94.09" y="0">t</tspan><tspan x="97.26" y="0">omers / Agents</tspan></text><text class="cls-1" transform="translate(12.17 446.71)">Sma<tspan class="cls-6" x="20.14" y="0">r</tspan><tspan x="23.76" y="0">t d</tspan><tspan class="cls-7" x="35.15" y="0">e</tspan><tspan x="40.38" y="0">vices</tspan></text><text class="cls-8" transform="translate(0.52 395.42)">0%</text><text class="cls-8" transform="translate(0.52 7.7)">100%</text><line class="cls-9" x1="404.7" y1="399.75" y2="399.75"/><line class="cls-9" x1="404.7" y1="10.59" y2="10.59"/><text class="cls-8" transform="translate(0.52 46.47)">90%</text><line class="cls-9" x1="404.7" y1="49.51" y2="49.51"/><text class="cls-8" transform="translate(0.52 85.24)">80%</text><line class="cls-9" x1="404.7" y1="88.42" y2="88.42"/><text class="cls-8" transform="translate(0.52 124.01)">70%</text><line class="cls-9" x1="404.7" y1="127.34" y2="127.34"/><text class="cls-8" transform="translate(0.52 162.79)">60%</text><line class="cls-9" x1="404.7" y1="166.26" y2="166.26"/><text class="cls-8" transform="translate(0.52 201.56)">50%</text><line class="cls-9" x1="404.7" y1="205.17" y2="205.17"/><text class="cls-8" transform="translate(0.52 240.33)">40%</text><line class="cls-9" x1="404.7" y1="244.09" y2="244.09"/><text class="cls-8" transform="translate(0.52 279.1)">30%</text><line class="cls-9" x1="404.7" y1="283" y2="283"/><text class="cls-8" transform="translate(0.52 317.87)">20%</text><line class="cls-9" x1="404.7" y1="321.92" y2="321.92"/><text class="cls-8" transform="translate(0.52 356.65)">10%</text><line class="cls-9" x1="404.7" y1="360.83" y2="360.83"/><rect class="cls-10" x="-108.87" y="200" width="388.81" height="10" transform="translate(-119.46 290.54) rotate(-90)"/><rect class="cls-11" x="-76.34" y="232.53" width="323.75" height="10" transform="translate(-151.99 323.07) rotate(-90)"/><rect class="cls-10" x="-128.87" y="200" width="388.81" height="10" transform="translate(-139.46 270.54) rotate(-90)"/><rect class="cls-12" x="63.54" y="392.41" width="3.99" height="10" transform="translate(-331.87 462.95) rotate(-90)"/><rect class="cls-10" x="-88.87" y="200" width="388.81" height="10" transform="translate(-99.46 310.54) rotate(-90)"/><rect class="cls-13" x="76.3" y="365.17" width="58.48" height="10" transform="translate(-264.63 475.71) rotate(-90)"/><rect class="cls-10" x="21.09" y="200" width="388.81" height="10" transform="translate(10.49 420.49) rotate(-90)"/><rect class="cls-11" x="91.43" y="270.35" width="248.12" height="10" transform="translate(-59.86 490.84) rotate(-90)"/><rect class="cls-10" x="1.09" y="200" width="388.81" height="10" transform="translate(-9.51 400.49) rotate(-90)"/><rect class="cls-12" x="171.24" y="370.16" width="48.5" height="10" transform="translate(-179.66 570.65) rotate(-90)"/><rect class="cls-10" x="41" y="200" width="388.81" height="10" transform="translate(30.41 440.41) rotate(-90)"/><rect class="cls-13" x="186.91" y="345.91" width="97" height="10" transform="translate(-115.5 586.31) rotate(-90)"/><rect class="cls-10" x="151.04" y="200" width="388.81" height="10" transform="translate(140.45 550.45) rotate(-90)"/><rect class="cls-11" x="186.54" y="235.5" width="317.81" height="10" transform="translate(104.95 585.95) rotate(-90)"/><rect class="cls-10" x="131.04" y="200" width="388.81" height="10" transform="translate(120.45 530.45) rotate(-90)"/><rect class="cls-10" x="170.95" y="200" width="388.81" height="10" transform="translate(160.36 570.36) rotate(-90)"/><rect class="cls-13" x="331.43" y="360.48" width="67.85" height="10" transform="translate(-0.12 730.84) rotate(-90)"/><polygon class="cls-14" points="248.41 295.15 239.24 295.15 235.07 297.81 231.07 295.15 222.41 295.15 222.41 281.15 248.41 281.15 248.41 295.15"/><text class="cls-15" transform="translate(230.67 292.25)">24</text><text class="cls-1" transform="translate(306.37 446.71)">Thi<tspan class="cls-4" x="13.9" y="0">r</tspan><tspan x="17.19" y="0">d pa</tspan><tspan class="cls-6" x="36.36" y="0">r</tspan><tspan x="39.99" y="0">ty </tspan><tspan class="cls-4" x="50.46" y="0">r</tspan><tspan x="53.75" y="0">epai</tspan><tspan class="cls-4" x="72.52" y="0">r</tspan><tspan x="75.82" y="0">er</tspan></text><circle class="cls-13" cx="298.36" cy="442.96" r="3"/><circle class="cls-11" cx="97.87" cy="442.96" r="3"/><circle class="cls-12" cx="3" cy="442.96" r="3"/></svg>