<svg id="Layer_1" data-name="Layer 1" xmlns="http://www.w3.org/2000/svg" viewBox="0 0 404 136"><defs><style>.cls-1,.cls-18{fill:#58c386;}.cls-1,.cls-2,.cls-3,.cls-4{opacity:0.2;}.cls-13,.cls-2{fill:#662d91;}.cls-22,.cls-3{fill:#f49d37;}.cls-16,.cls-4{fill:#f06088;}.cls-5{fill:#fff;}.cls-23,.cls-24,.cls-25,.cls-26,.cls-6,.cls-7,.cls-8,.cls-9{fill:none;stroke-miterlimit:10;}.cls-26,.cls-6{stroke:#662d91;}.cls-6,.cls-7,.cls-8,.cls-9{stroke-width:3px;}.cls-25,.cls-7{stroke:#f06088;}.cls-24,.cls-8{stroke:#58c386;}.cls-23,.cls-9{stroke:#f49d37;}.cls-10{font-size:10px;fill:#333;font-family:Roboto-Regular, Roboto;}.cls-11{letter-spacing:-0.01em;}.cls-12{letter-spacing:-0.01em;}.cls-14{fill:gray;}.cls-15{letter-spacing:-0.06em;}.cls-17{letter-spacing:-0.01em;}.cls-19{letter-spacing:0.01em;}.cls-20{letter-spacing:-0.01em;}.cls-21{letter-spacing:-0.02em;}</style></defs><title>graph-claims-prevention-2_1</title><path class="cls-1" d="M105.31,66.91,49.66,33.33a65,65,0,0,0,36.17,95.59Z"/><path class="cls-2" d="M105.31,66.91,169,80A65,65,0,0,0,105.57,1.91Z"/><path class="cls-3" d="M105.31,66.91l.76-65h-.76A65.06,65.06,0,0,0,49.74,33.2Z"/><path class="cls-4" d="M105.31,66.91l-19.44,62A65,65,0,0,0,169.08,79.5Z"/><circle class="cls-5" cx="105.31" cy="66.91" r="53.52" transform="translate(-1.22 1.96) rotate(-1.06)"/><path class="cls-6" d="M169,80A65,65,0,0,0,105.57,1.91"/><path class="cls-7" d="M85.88,128.94A65,65,0,0,0,169.08,79.5"/><path class="cls-8" d="M49.66,33.33a65,65,0,0,0,36.17,95.59"/><path class="cls-9" d="M106.08,1.92h-.76A65.06,65.06,0,0,0,49.74,33.2"/><text class="cls-10" transform="translate(235.07 8.56)"><tspan class="cls-11">F</tspan><tspan x="5.42" y="0">eatu</tspan><tspan class="cls-12" x="24.94" y="0">r</tspan><tspan x="28.23" y="0">es of security alarm system</tspan></text><circle class="cls-13" cx="227.51" cy="5.84" r="3"/><text class="cls-10" transform="translate(235.07 23.56)">Intrusion<tspan class="cls-14" x="39.2" y="0"> </tspan><tspan class="cls-14"><tspan x="0" y="14">(doo</tspan><tspan class="cls-15" x="20.46" y="14">r</tspan><tspan x="23.25" y="14">, window &amp; glass b</tspan><tspan class="cls-12" x="105.04" y="14">r</tspan><tspan x="108.33" y="14">eak sensors)</tspan></tspan></text><circle class="cls-16" cx="227.51" cy="20.84" r="3"/><text class="cls-10" transform="translate(235.07 55.56)">Envi<tspan class="cls-17" x="18.47" y="0">r</tspan><tspan x="21.76" y="0">onmental</tspan><tspan class="cls-14" x="63.69" y="0"> </tspan><tspan class="cls-14"><tspan x="0" y="14">(carbon mon</tspan><tspan class="cls-11" x="56.77" y="14">o</tspan><tspan x="62.37" y="14">xide, fi</tspan><tspan class="cls-12" x="91.03" y="14">r</tspan><tspan x="94.32" y="14">e, flood sensors)</tspan></tspan></text><circle class="cls-18" cx="227.51" cy="52.84" r="3"/><text class="cls-10" transform="translate(235.07 87.56)">Su<tspan class="cls-19" x="11.45" y="0">r</tspan><tspan class="cls-20" x="14.92" y="0">v</tspan><tspan x="19.7" y="0">eillance</tspan><tspan class="cls-14"><tspan x="0" y="14">(indoo</tspan><tspan class="cls-15" x="28.41" y="14">r</tspan><tspan x="31.19" y="14">, outdoor &amp; doorbell came</tspan><tspan class="cls-21" x="145.11" y="14">r</tspan><tspan x="148.3" y="14">as)</tspan></tspan></text><circle class="cls-22" cx="227.51" cy="84.84" r="3"/><text class="cls-10" transform="translate(0 117.32)">95%</text><text class="cls-10" transform="translate(191.45 118.92)">70%</text><text class="cls-10" transform="translate(191.45 10.76)">86%</text><text class="cls-10" transform="translate(0 16.04)">45%</text><polyline class="cls-23" points="55.96 24.62 40.31 13.39 26.17 13.39"/><polyline class="cls-24" points="53.34 106.98 37.7 114.19 23.55 114.19"/><polyline class="cls-25" points="158.83 103.72 170.65 115.32 187.72 115.32"/><polyline class="cls-26" points="150.42 20.11 173.58 7.42 187.72 7.42"/></svg>