<svg id="Layer_1" data-name="Layer 1" xmlns="http://www.w3.org/2000/svg" viewBox="0 0 287 400"><defs><style>.cls-1,.cls-14{fill:#58c386;}.cls-1,.cls-2,.cls-3,.cls-4,.cls-5{opacity:0.2;}.cls-18,.cls-2{fill:#f49d37;}.cls-22,.cls-3{fill:#45b6e1;}.cls-24,.cls-4{fill:#662d91;}.cls-28,.cls-5{fill:#f06088;}.cls-6{fill:#fff;}.cls-10,.cls-11,.cls-29,.cls-30,.cls-31,.cls-32,.cls-7,.cls-8,.cls-9{fill:none;stroke-miterlimit:10;}.cls-29,.cls-7{stroke:#58c386;}.cls-10,.cls-11,.cls-7,.cls-8,.cls-9{stroke-width:3px;}.cls-30,.cls-8{stroke:#f06088;}.cls-31,.cls-9{stroke:#662d91;}.cls-10,.cls-32{stroke:#45b6e1;}.cls-11{stroke:#f49d37;}.cls-12{font-size:10px;}.cls-12,.cls-25{fill:#333;font-family:Roboto-Regular, Roboto;}.cls-13{letter-spacing:-0.02em;}.cls-15{letter-spacing:-0.01em;}.cls-16{letter-spacing:-0.01em;}.cls-17{letter-spacing:-0.01em;}.cls-19{letter-spacing:-0.01em;}.cls-20{letter-spacing:-0.01em;}.cls-21{letter-spacing:-0.02em;}.cls-23{letter-spacing:-0.01em;}.cls-25{font-size:10.09px;}.cls-26{letter-spacing:-0.01em;}.cls-27{letter-spacing:0em;}</style></defs><title>graph-dp-water-dectectors-vs-customer</title><path class="cls-1" d="M143.41,143,33.15,201.92A125.15,125.15,0,0,0,143.41,268c68.57,0,125-56.43,125-125S212,18,143.41,18Z"/><path class="cls-2" d="M143.41,143,22.8,110.17a125,125,0,0,0,10.6,92.23Z"/><path class="cls-3" d="M143.41,143,27.72,95.68q-1.46,3.56-2.69,7.21t-2.24,7.36Z"/><path class="cls-4" d="M143.41,143,55.47,54.19A125,125,0,0,0,27.6,96Z"/><path class="cls-5" d="M143.41,143l.06-125h-.06A125,125,0,0,0,55.19,54.47Z"/><circle class="cls-6" cx="143.41" cy="143.03" r="102.92"/><path class="cls-7" d="M33.15,201.92A125.15,125.15,0,0,0,143.41,268c68.57,0,125-56.43,125-125S212,18,143.41,18"/><path class="cls-8" d="M143.47,18h-.06A125,125,0,0,0,55.19,54.47"/><path class="cls-9" d="M55.47,54.19A125,125,0,0,0,27.6,96"/><path class="cls-10" d="M27.72,95.68q-1.46,3.56-2.69,7.21t-2.24,7.36"/><path class="cls-11" d="M22.8,110.17a125,125,0,0,0,10.6,92.23"/><text class="cls-12" transform="translate(13.91 338.95)"><tspan class="cls-13">W</tspan><tspan x="8.71" y="0">ater leak detection</tspan></text><circle class="cls-14" cx="6.35" cy="336.23" r="3"/><text class="cls-12" transform="translate(13.91 353.95)"><tspan class="cls-15">A</tspan><tspan x="6.47" y="0">u</tspan><tspan class="cls-16" x="11.98" y="0">t</tspan><tspan x="15.15" y="0">omatic </tspan><tspan class="cls-17" x="48.46" y="0">v</tspan><tspan x="53.23" y="0">alue shut-off</tspan></text><circle class="cls-18" cx="6.35" cy="351.23" r="3"/><text class="cls-12" transform="translate(13.91 368.95)"><tspan class="cls-19">F</tspan><tspan class="cls-20" x="5.4" y="0">r</tspan><tspan x="8.69" y="0">eezing tempe</tspan><tspan class="cls-21" x="68.51" y="0">r</tspan><tspan x="71.7" y="0">atu</tspan><tspan class="cls-20" x="85.92" y="0">r</tspan><tspan x="89.21" y="0">e indica</tspan><tspan class="cls-16" x="123.67" y="0">t</tspan><tspan x="126.84" y="0">or</tspan></text><circle class="cls-22" cx="6.35" cy="366.23" r="3"/><text class="cls-12" transform="translate(13.91 383.95)">Humidity l<tspan class="cls-23" x="44.8" y="0">ev</tspan><tspan x="54.81" y="0">els indica</tspan><tspan class="cls-16" x="96.86" y="0">t</tspan><tspan x="100.02" y="0">or</tspan></text><circle class="cls-24" cx="6.08" cy="381.04" r="3.03"/><text class="cls-25" transform="translate(13.71 398.92)">Built-in si<tspan class="cls-26" x="40.99" y="0">r</tspan><tspan class="cls-27" x="44.31" y="0">en</tspan></text><circle class="cls-28" cx="6.08" cy="396.18" r="3.03"/><text class="cls-12" transform="translate(268.41 8.55)">60%</text><polyline class="cls-29" points="213.97 40.1 250.54 5.21 264.68 5.21"/><text class="cls-12" transform="translate(0 8.55)">10%</text><polyline class="cls-30" points="86.03 31.98 66.02 5.21 22.78 5.21"/><text class="cls-12" transform="translate(0 66.02)">5%</text><polyline class="cls-31" points="43.05 68.5 38.7 62.67 15.35 62.67"/><text class="cls-12" transform="translate(0 99.04)">2%</text><text class="cls-12" transform="translate(0 162.85)">14%</text><line class="cls-32" x1="25.25" y1="102.97" x2="15.35" y2="95.97"/></svg>