<svg id="Layer_1" data-name="Layer 1" xmlns="http://www.w3.org/2000/svg" viewBox="0 0 222 155"><defs><style>.cls-1,.cls-14{fill:#58c386;}.cls-1,.cls-2,.cls-3{opacity:0.2;}.cls-13,.cls-2{fill:#662d91;}.cls-12,.cls-3{fill:#f49d37;}.cls-4{fill:#fff;}.cls-5{font-size:10px;fill:#333;font-family:Roboto-Regular, Roboto;}.cls-10,.cls-11,.cls-6,.cls-7,.cls-8,.cls-9{fill:none;stroke-miterlimit:10;}.cls-6,.cls-9{stroke:#f49d37;}.cls-11,.cls-7{stroke:#58c386;}.cls-10,.cls-8{stroke:#662d91;}.cls-10,.cls-11,.cls-9{stroke-width:3px;}</style></defs><title>graph-claims-vendors-1</title><path class="cls-1" d="M119.28,67.5l.18-65h-.18A65,65,0,0,0,67.11,28.72Z"/><path class="cls-2" d="M119.28,67.5,67.12,28.72A65,65,0,0,0,74.87,115Z"/><path class="cls-3" d="M119.28,67.5,75.51,115.55A65,65,0,1,0,119.41,2.5Z"/><circle class="cls-4" cx="119.28" cy="67.5" r="53.52" transform="translate(-1.23 2.22) rotate(-1.06)"/><text class="cls-5" transform="translate(203.43 19.98)">65%</text><polyline class="cls-6" points="168.47 25.2 183.9 16.64 194.68 16.64"/><text class="cls-5" transform="translate(21.75 9.98)">12%</text><polyline class="cls-7" points="82.62 13.97 77.66 6.63 44.45 6.63"/><text class="cls-5" transform="translate(21.75 89.27)">23%</text><line class="cls-8" x1="56.95" y1="85.93" x2="46.61" y2="85.93"/><path class="cls-9" d="M75.51,115.55A65,65,0,1,0,119.41,2.5"/><path class="cls-10" d="M67.12,28.72A65,65,0,0,0,74.87,115"/><path class="cls-11" d="M119.46,2.5h-.18A65,65,0,0,0,67.11,28.72"/><text class="cls-5" transform="translate(10.56 152.29)">Nest</text><circle class="cls-12" cx="3" cy="149.57" r="3"/><text class="cls-5" transform="translate(61.28 152.29)">Vivint</text><circle class="cls-13" cx="53.72" cy="149.57" r="3"/><text class="cls-5" transform="translate(118.33 152.29)">Neos</text><circle class="cls-14" cx="110.77" cy="149.57" r="3"/></svg>