<svg id="Layer_1" data-name="Layer 1" xmlns="http://www.w3.org/2000/svg" viewBox="0 0 406 172"><defs><style>.cls-1,.cls-17,.cls-4,.cls-5,.cls-8{font-size:10px;}.cls-1,.cls-10,.cls-12{fill:#333;}.cls-1,.cls-17,.cls-5,.cls-8{font-family:Roboto-Regular, Roboto;}.cls-2{letter-spacing:-0.01em;}.cls-3{letter-spacing:-0.02em;}.cls-4{fill:#e7473d;font-family:Roboto-Bold, Roboto;font-weight:700;}.cls-15,.cls-5{fill:#58c386;}.cls-6{letter-spacing:0.02em;}.cls-7{letter-spacing:-0.01em;}.cls-16,.cls-8{fill:#45b6e1;}.cls-17,.cls-9{fill:#fff;}.cls-11{fill:#b3b3b3;}.cls-12{font-size:9px;font-family:Roboto-Medium, Roboto;}.cls-13{fill:none;stroke:#f2f2f2;stroke-miterlimit:10;}.cls-14{fill:#f2f2f2;}</style></defs><title>graph-claims-loss-payment-4</title><text class="cls-1" transform="translate(65.52 143.52)">Living <tspan class="cls-2" x="28.68" y="0">r</tspan><tspan x="31.97" y="0">oom</tspan></text><text class="cls-1" transform="translate(206.29 143.52)">Bed<tspan class="cls-2" x="17.16" y="0">r</tspan><tspan x="20.45" y="0">oom</tspan></text><text class="cls-1" transform="translate(329.73 143.52)">Ga<tspan class="cls-3" x="12.25" y="0">r</tspan><tspan x="15.44" y="0">age</tspan></text><text class="cls-4" transform="translate(13.5 168.76)">Both</text><text class="cls-5" transform="translate(241.15 168.76)">Non - sma<tspan class="cls-6" x="45.42" y="0">r</tspan><tspan x="49.05" y="0">t d</tspan><tspan class="cls-7" x="60.43" y="0">e</tspan><tspan x="65.66" y="0">vice homes</tspan></text><text class="cls-8" transform="translate(73 168.76)">Sma<tspan class="cls-6" x="20.14" y="0">r</tspan><tspan x="23.76" y="0">t d</tspan><tspan class="cls-7" x="35.15" y="0">e</tspan><tspan x="40.38" y="0">vice homes</tspan></text><circle class="cls-9" cx="5" cy="164.76" r="4.5"/><path class="cls-10" d="M5,160.76a4,4,0,1,1-4,4,4,4,0,0,1,4-4m0-1a5,5,0,1,0,5,5,5,5,0,0,0-5-5Z"/><circle class="cls-9" cx="226.15" cy="164.76" r="4.5"/><path class="cls-11" d="M226.15,160.76a4,4,0,1,1-4,4,4,4,0,0,1,4-4m0-1h0a5,5,0,0,0,0,10h0a5,5,0,1,0,0-10Z"/><circle class="cls-9" cx="59.5" cy="164.76" r="4.5"/><path class="cls-11" d="M59.5,160.76a4,4,0,1,1-4,4,4,4,0,0,1,4-4m0-1h0a5,5,0,0,0,0,10h0a5,5,0,0,0,0-10Z"/><rect class="cls-10" x="2.5" y="162.26" width="5" height="5" rx="2.5" ry="2.5"/><text class="cls-12" transform="translate(1.66 122.47)">0</text><text class="cls-12" transform="translate(1.66 7.7)">100</text><line class="cls-13" x1="405.83" y1="126.8" x2="1.13" y2="126.8"/><line class="cls-13" x1="405.83" y1="10.59" x2="1.13" y2="10.59"/><text class="cls-12" transform="translate(1.66 30.65)">80</text><line class="cls-13" x1="405.83" y1="33.83" x2="1.13" y2="33.83"/><text class="cls-12" transform="translate(1.66 53.61)">60</text><line class="cls-13" x1="405.83" y1="57.08" x2="1.13" y2="57.08"/><text class="cls-12" transform="translate(1.66 76.56)">40</text><line class="cls-13" x1="405.83" y1="80.32" x2="1.13" y2="80.32"/><text class="cls-12" transform="translate(1.66 99.52)">20</text><line class="cls-13" x1="405.83" y1="103.56" x2="1.13" y2="103.56"/><rect class="cls-14" x="45.74" y="63.53" width="115.87" height="10" transform="translate(35.15 172.2) rotate(-90)"/><rect class="cls-15" x="74.71" y="92.49" width="57.93" height="10" transform="translate(6.18 201.16) rotate(-90)"/><rect class="cls-14" x="25.65" y="63.53" width="115.86" height="10" transform="translate(15.06 152.11) rotate(-90)"/><rect class="cls-16" x="65.37" y="103.25" width="36.42" height="10" transform="translate(-24.66 191.83) rotate(-90)"/><rect class="cls-14" x="178.17" y="63.53" width="115.86" height="10" transform="translate(167.58 304.63) rotate(-90)"/><rect class="cls-15" x="227.49" y="112.84" width="17.24" height="10" transform="translate(118.27 353.94) rotate(-90)"/><rect class="cls-14" x="158.17" y="63.53" width="115.86" height="10" transform="translate(147.58 284.63) rotate(-90)"/><rect class="cls-16" x="211.28" y="116.63" width="9.65" height="10" transform="translate(94.47 337.74) rotate(-90)"/><rect class="cls-14" x="299.23" y="63.53" width="115.86" height="10" transform="translate(288.64 425.69) rotate(-90)"/><rect class="cls-15" x="348.55" y="112.84" width="17.24" height="10" transform="translate(239.33 475.01) rotate(-90)"/><rect class="cls-14" x="279.23" y="63.53" width="115.86" height="10" transform="translate(268.64 405.69) rotate(-90)"/><rect class="cls-16" x="332.86" y="117.15" width="8.62" height="10" transform="translate(215.02 459.31) rotate(-90)"/><polygon class="cls-10" points="226.16 110.84 219.94 110.84 215.77 113.51 211.77 110.84 206.25 110.84 206.25 96.84 226.16 96.84 226.16 110.84"/><text class="cls-17" transform="translate(213.18 107.94)">9</text></svg>