<svg id="Layer_1" data-name="Layer 1" xmlns="http://www.w3.org/2000/svg" viewBox="0 0 375 136"><defs><style>.cls-1,.cls-15{fill:#58c386;}.cls-1,.cls-2,.cls-3{opacity:0.2;}.cls-14,.cls-2{fill:#662d91;}.cls-13,.cls-3{fill:#f49d37;}.cls-4{fill:#fff;}.cls-10,.cls-11,.cls-5,.cls-6,.cls-7,.cls-9{fill:none;stroke-miterlimit:10;}.cls-5,.cls-9{stroke:#f49d37;}.cls-5,.cls-6,.cls-7{stroke-width:3px;}.cls-10,.cls-6{stroke:#58c386;}.cls-11,.cls-7{stroke:#662d91;}.cls-8{font-size:10px;fill:#333;font-family:Roboto-Regular, Roboto;}.cls-12{letter-spacing:-0.01em;}</style></defs><title>graph-claims-prevention-2</title><path class="cls-1" d="M97.53,69.85l.18-65h-.18a65,65,0,0,0-44.26,112.6Z"/><path class="cls-2" d="M97.53,69.85,52.73,116.94A65,65,0,0,0,159.9,88.16Z"/><path class="cls-3" d="M97.53,69.85,159.9,88.16A65,65,0,0,0,97.67,4.85Z"/><circle class="cls-4" cx="97.53" cy="69.85" r="53.52" transform="translate(-1.28 1.82) rotate(-1.06)"/><path class="cls-5" d="M159.9,88.16A65,65,0,0,0,97.67,4.85"/><path class="cls-6" d="M97.72,4.85h-.18a65,65,0,0,0-44.26,112.6"/><path class="cls-7" d="M52.73,116.94A65,65,0,0,0,159.9,88.16"/><text class="cls-8" transform="translate(181.68 22.33)">75%</text><polyline class="cls-9" points="151.05 29.92 162.15 18.98 172.93 18.98"/><text class="cls-8" transform="translate(0 22.33)">95%</text><polyline class="cls-10" points="45.1 29.92 36.53 18.98 22.7 18.98"/><text class="cls-8" transform="translate(181.68 126.71)">67%</text><polyline class="cls-11" points="147.39 111.51 162.15 123.37 172.93 123.37"/><text class="cls-8" transform="translate(237.63 8.55)">Pho<tspan class="cls-12" x="17.52" y="0">t</tspan><tspan x="20.69" y="0">oelectric smo</tspan><tspan class="cls-12" x="81.06" y="0">k</tspan><tspan x="86.03" y="0">e detec</tspan><tspan class="cls-12" x="118.54" y="0">t</tspan><tspan x="121.71" y="0">ors</tspan></text><circle class="cls-13" cx="230.07" cy="5.84" r="3"/><text class="cls-8" transform="translate(237.63 23.55)">Ionization smo<tspan class="cls-12" x="65.78" y="0">k</tspan><tspan x="70.75" y="0">e detec</tspan><tspan class="cls-12" x="103.26" y="0">t</tspan><tspan x="106.43" y="0">ors</tspan></text><circle class="cls-14" cx="230.07" cy="20.84" r="3"/><text class="cls-8" transform="translate(237.63 38.55)">Dual sensor smo<tspan class="cls-12" x="74.73" y="0">k</tspan><tspan x="79.7" y="0">e detec</tspan><tspan class="cls-12" x="112.21" y="0">t</tspan><tspan x="115.38" y="0">ors</tspan></text><circle class="cls-15" cx="230.07" cy="35.84" r="3"/></svg>