<svg id="Layer_1" data-name="Layer 1" xmlns="http://www.w3.org/2000/svg" viewBox="0 0 395 385"><defs><style>.cls-1,.cls-19{fill:#58c386;}.cls-1,.cls-2,.cls-3,.cls-4,.cls-5{opacity:0.2;}.cls-2,.cls-23{fill:#f49d37;}.cls-27,.cls-3{fill:#45b6e1;}.cls-29,.cls-4{fill:#662d91;}.cls-30,.cls-5{fill:#f06088;}.cls-6{fill:#fff;}.cls-7{font-size:10px;fill:#333;font-family:Roboto-Regular, Roboto;}.cls-10,.cls-11,.cls-12,.cls-13,.cls-14,.cls-15,.cls-16,.cls-17,.cls-8,.cls-9{fill:none;stroke-miterlimit:10;}.cls-13,.cls-8{stroke:#f06088;}.cls-17,.cls-9{stroke:#662d91;}.cls-10,.cls-14{stroke:#58c386;}.cls-11,.cls-16{stroke:#45b6e1;}.cls-12,.cls-15{stroke:#f49d37;}.cls-13,.cls-14,.cls-15,.cls-16,.cls-17{stroke-width:3px;}.cls-18{letter-spacing:-0.02em;}.cls-20{letter-spacing:-0.01em;}.cls-21{letter-spacing:-0.01em;}.cls-22{letter-spacing:-0.01em;}.cls-24{letter-spacing:-0.01em;}.cls-25{letter-spacing:-0.01em;}.cls-26{letter-spacing:-0.02em;}.cls-28{letter-spacing:-0.01em;}</style></defs><title>graph-claims-prevention-1</title><path class="cls-1" d="M198.34,143,314.68,65.13A140,140,0,0,0,198.34,3Z"/><path class="cls-2" d="M198.34,143l93.22,104.45a140,140,0,0,0,23-182.57Z"/><path class="cls-3" d="M198.34,143l-80.9,114.26a140,140,0,0,0,174.32-10Z"/><path class="cls-4" d="M198.34,143,58.49,149.51a140,140,0,0,0,58.68,107.56Z"/><path class="cls-5" d="M198.34,143,198.4,3h-.07c-76.8,0-140,63.2-140,140q0,3.39.16,6.79Z"/><circle class="cls-6" cx="198.34" cy="143" r="115.27"/><text class="cls-7" transform="translate(14.27 18.53)">98%</text><polyline class="cls-8" points="100.29 41.95 80.29 15.19 37.05 15.19"/><text class="cls-7" transform="translate(14.27 267.03)">80%</text><polyline class="cls-9" points="98.99 241.65 80.29 263.69 37.05 263.69"/><text class="cls-7" transform="translate(376.03 18.53)">70%</text><polyline class="cls-10" points="275.4 26.12 286.5 15.19 367.28 15.19"/><text class="cls-7" transform="translate(376.03 285.43)">78%</text><polyline class="cls-11" points="266.74 265.14 286.5 282.09 367.28 282.09"/><text class="cls-7" transform="translate(376.03 154.47)">95%</text><line class="cls-12" x1="338.34" y1="151.12" x2="367.28" y2="151.12"/><path class="cls-13" d="M198.4,3h-.07c-76.8,0-140,63.2-140,140q0,3.39.16,6.79"/><path class="cls-14" d="M314.68,65.13A140,140,0,0,0,198.34,3"/><path class="cls-15" d="M291.55,247.45a140,140,0,0,0,23-182.57"/><path class="cls-16" d="M117.43,257.26a140,140,0,0,0,174.32-10"/><path class="cls-17" d="M58.49,149.51a140,140,0,0,0,58.68,107.56"/><text class="cls-7" transform="translate(10.56 320.56)"><tspan class="cls-18">W</tspan><tspan x="8.71" y="0">ater leak detection</tspan></text><circle class="cls-19" cx="3" cy="317.84" r="3"/><text class="cls-7" transform="translate(10.56 335.56)"><tspan class="cls-20">A</tspan><tspan x="6.47" y="0">u</tspan><tspan class="cls-21" x="11.98" y="0">t</tspan><tspan x="15.15" y="0">omatic </tspan><tspan class="cls-22" x="48.46" y="0">v</tspan><tspan x="53.23" y="0">alue shut-off</tspan></text><circle class="cls-23" cx="3" cy="332.84" r="3"/><text class="cls-7" transform="translate(10.56 350.56)"><tspan class="cls-24">F</tspan><tspan class="cls-25" x="5.4" y="0">r</tspan><tspan x="8.69" y="0">eezing tempe</tspan><tspan class="cls-26" x="68.51" y="0">r</tspan><tspan x="71.7" y="0">atu</tspan><tspan class="cls-25" x="85.92" y="0">r</tspan><tspan x="89.21" y="0">e indica</tspan><tspan class="cls-21" x="123.67" y="0">t</tspan><tspan x="126.84" y="0">or</tspan></text><circle class="cls-27" cx="3" cy="347.84" r="3"/><text class="cls-7" transform="translate(10.56 365.56)">Humidity l<tspan class="cls-28" x="44.8" y="0">ev</tspan><tspan x="54.81" y="0">els indica</tspan><tspan class="cls-21" x="96.86" y="0">t</tspan><tspan x="100.02" y="0">or</tspan></text><circle class="cls-29" cx="3" cy="362.84" r="3"/><text class="cls-7" transform="translate(10.56 380.56)">Built-in si<tspan class="cls-25" x="40.62" y="0">r</tspan><tspan x="43.91" y="0">en</tspan></text><circle class="cls-30" cx="3" cy="377.84" r="3"/></svg>