<svg id="Layer_1" data-name="Layer 1" xmlns="http://www.w3.org/2000/svg" viewBox="0 0 521 138"><defs><style>.cls-1{font-size:12px;font-family:Roboto-Bold, Roboto;font-weight:700;}.cls-1,.cls-7{fill:#333;}.cls-2{letter-spacing:-0.01em;}.cls-3{letter-spacing:-0.01em;}.cls-4{fill:#c93a5a;}.cls-5{fill:#e67283;}.cls-6{fill:#e5e6e6;}.cls-7{font-size:10px;font-family:Roboto-Regular, Roboto;}.cls-8{letter-spacing:0.01em;}.cls-9{letter-spacing:-0.01em;}.cls-10{letter-spacing:-0.01em;}.cls-11{letter-spacing:-0.02em;}.cls-12{letter-spacing:-0.02em;}.cls-13{letter-spacing:0.02em;}</style></defs><title>graph-dp-device-vs-vendors</title><text class="cls-1" transform="translate(0.24 109.39)">Smo<tspan class="cls-2" x="24.55" y="0">k</tspan><tspan x="30.84" y="0">e / Co detec</tspan><tspan class="cls-3" x="95.46" y="0">t</tspan><tspan x="99.34" y="0">ors</tspan></text><rect class="cls-4" x="1" y="114.64" width="519.24" height="10"/><rect class="cls-5" x="1" y="114.64" width="249.91" height="10"/><rect class="cls-6" x="250.91" y="114.64" width="184.09" height="10"/><text class="cls-7" transform="translate(0 134.56)">Nest 50%</text><text class="cls-7" transform="translate(251.04 134.56)">Vivint 30%</text><text class="cls-7" transform="translate(475.3 134.56)">Neos 20%</text><text class="cls-1" transform="translate(0.62 60.4)">Security / Su<tspan class="cls-8" x="69.02" y="0">r</tspan><tspan class="cls-9" x="73.51" y="0">v</tspan><tspan x="79.49" y="0">eillance system</tspan></text><rect class="cls-4" x="1.38" y="66.14" width="519.24" height="10"/><rect class="cls-5" x="1.38" y="66.14" width="318.46" height="10"/><rect class="cls-6" x="319.84" y="66.14" width="191.22" height="10"/><text class="cls-7" transform="translate(1.62 86.56)">A<tspan class="cls-10" x="6.52" y="0">D</tspan><tspan class="cls-11" x="12.95" y="0">T</tspan><tspan x="18.72" y="0" xml:space="preserve"> 88%</tspan></text><text class="cls-7" transform="translate(319.78 86.56)">Cana<tspan class="cls-8" x="22.91" y="0">r</tspan><tspan x="26.38" y="0">y 11%</tspan></text><text class="cls-7" transform="translate(480.03 86.56)">Vivint 1%</text><text class="cls-1" transform="translate(0.62 10.27)"><tspan class="cls-12">W</tspan><tspan x="10.3" y="0">ater leak detec</tspan><tspan class="cls-3" x="90.19" y="0">t</tspan><tspan x="94.07" y="0">ors</tspan></text><rect class="cls-4" x="1.38" y="15.51" width="519.24" height="10"/><rect class="cls-5" x="1.38" y="15.51" width="269.6" height="10"/><rect class="cls-6" x="270.98" y="15.51" width="230.08" height="10"/><text class="cls-7" transform="translate(0.24 35.5)">LeakSma<tspan class="cls-13" x="41.32" y="0">r</tspan><tspan x="44.95" y="0">t 78%</tspan></text><text class="cls-7" transform="translate(270.98 35.5)">Roost 20%</text><text class="cls-7" transform="translate(471 35.5)">Monnitt 2%</text></svg>