<svg id="Layer_1" data-name="Layer 1" xmlns="http://www.w3.org/2000/svg" viewBox="0 0 237 190"><defs><style>.cls-1,.cls-14{fill:#58c386;}.cls-1,.cls-2,.cls-3{opacity:0.2;}.cls-11,.cls-2{fill:#662d91;}.cls-15,.cls-3{fill:#f49d37;}.cls-4{fill:#fff;}.cls-16,.cls-17,.cls-18,.cls-5,.cls-6,.cls-7{fill:none;stroke-miterlimit:10;}.cls-16,.cls-5{stroke:#58c386;}.cls-5,.cls-6,.cls-7{stroke-width:3px;}.cls-18,.cls-6{stroke:#f49d37;}.cls-17,.cls-7{stroke:#662d91;}.cls-8{font-size:10px;fill:#333;font-family:Roboto-Regular, Roboto;}.cls-9{letter-spacing:-0.02em;}.cls-10{letter-spacing:-0.01em;}.cls-12{letter-spacing:0.01em;}.cls-13{letter-spacing:-0.01em;}</style></defs><title>graph-ms-online-status</title><path class="cls-1" d="M114.1,66.71l.18-65h-.18A65,65,0,0,0,61.2,104.48Z"/><path class="cls-2" d="M114.1,66.71,61,104.26a65,65,0,0,0,110.3-6.77Z"/><path class="cls-3" d="M114.1,66.71l57.08,31.1a65,65,0,0,0-56.94-96.1Z"/><circle class="cls-4" cx="114.1" cy="66.71" r="53.52" transform="translate(-1.22 2.13) rotate(-1.06)"/><path class="cls-5" d="M114.28,1.71h-.18A65,65,0,0,0,61.2,104.48"/><path class="cls-6" d="M171.17,97.81a65,65,0,0,0-56.94-96.1"/><path class="cls-7" d="M61,104.26a65,65,0,0,0,110.3-6.77"/><text class="cls-8" transform="translate(13.19 155.56)"><tspan class="cls-9">W</tspan><tspan x="8.71" y="0">ater leak detec</tspan><tspan class="cls-10" x="74.02" y="0">t</tspan><tspan x="77.19" y="0">ors</tspan></text><circle class="cls-11" cx="5.63" cy="152.85" r="3"/><text class="cls-8" transform="translate(13.19 170.56)">Security / Su<tspan class="cls-12" x="56.3" y="0">r</tspan><tspan class="cls-13" x="59.78" y="0">v</tspan><tspan x="64.56" y="0">eillance system</tspan></text><circle class="cls-14" cx="5.63" cy="167.85" r="3"/><text class="cls-8" transform="translate(13.19 185.56)">Smo<tspan class="cls-10" x="20.4" y="0">k</tspan><tspan x="25.37" y="0">e / Co detec</tspan><tspan class="cls-10" x="79.17" y="0">t</tspan><tspan x="82.33" y="0" xml:space="preserve">ors   </tspan></text><circle class="cls-15" cx="5.63" cy="182.85" r="3"/><text class="cls-8" transform="translate(0 8.55)">90%</text><polyline class="cls-16" points="60.58 28.09 37.7 5.43 23.55 5.43"/><text class="cls-8" transform="translate(212.7 139.96)">75%</text><text class="cls-8" transform="translate(212.7 10.6)">100%</text><polyline class="cls-17" points="160.22 112.41 191.9 137.08 208.97 137.08"/><polyline class="cls-18" points="167.62 30.01 194.83 7.26 208.97 7.26"/></svg>