<svg id="Layer_1" data-name="Layer 1" xmlns="http://www.w3.org/2000/svg" viewBox="0 0 406 172"><defs><style>.cls-1,.cls-16,.cls-3,.cls-4,.cls-7{font-size:10px;}.cls-1,.cls-11,.cls-9{fill:#333;}.cls-1,.cls-16,.cls-4,.cls-7{font-family:Roboto-Regular, Roboto;}.cls-2{letter-spacing:-0.01em;}.cls-3{fill:#e7473d;font-family:Roboto-Bold, Roboto;font-weight:700;}.cls-14,.cls-4{fill:#58c386;}.cls-5{letter-spacing:0.02em;}.cls-6{letter-spacing:-0.01em;}.cls-15,.cls-7{fill:#45b6e1;}.cls-16,.cls-8{fill:#fff;}.cls-10{fill:#b3b3b3;}.cls-11{font-size:9px;font-family:Roboto-Medium, Roboto;}.cls-12{fill:none;stroke:#f2f2f2;stroke-miterlimit:10;}.cls-13{fill:#f2f2f2;}</style></defs><title>graph-claims-loss-payment-2</title><text class="cls-1" transform="translate(66.34 143.52)">Kitchen fi<tspan class="cls-2" x="41.89" y="0">r</tspan><tspan x="45.19" y="0">e</tspan></text><text class="cls-1" transform="translate(205.09 143.52)">Fi<tspan class="cls-2" x="7.95" y="0">r</tspan><tspan x="11.25" y="0">e place</tspan></text><text class="cls-1" transform="translate(333.11 143.52)">Utility</text><text class="cls-3" transform="translate(13.5 168.76)">Both</text><text class="cls-4" transform="translate(241.15 168.76)">Non - sma<tspan class="cls-5" x="45.42" y="0">r</tspan><tspan x="49.05" y="0">t d</tspan><tspan class="cls-6" x="60.43" y="0">e</tspan><tspan x="65.66" y="0">vice homes</tspan></text><text class="cls-7" transform="translate(73 168.76)">Sma<tspan class="cls-5" x="20.14" y="0">r</tspan><tspan x="23.76" y="0">t d</tspan><tspan class="cls-6" x="35.15" y="0">e</tspan><tspan x="40.38" y="0">vice homes</tspan></text><circle class="cls-8" cx="5" cy="164.76" r="4.5"/><path class="cls-9" d="M5,160.76a4,4,0,1,1-4,4,4,4,0,0,1,4-4m0-1a5,5,0,1,0,5,5,5,5,0,0,0-5-5Z"/><circle class="cls-8" cx="226.15" cy="164.76" r="4.5"/><path class="cls-10" d="M226.15,160.76a4,4,0,1,1-4,4,4,4,0,0,1,4-4m0-1h0a5,5,0,0,0,0,10h0a5,5,0,0,0,0-10Z"/><circle class="cls-8" cx="59.5" cy="164.76" r="4.5"/><path class="cls-10" d="M59.5,160.76a4,4,0,1,1-4,4,4,4,0,0,1,4-4m0-1h0a5,5,0,0,0,0,10h0a5,5,0,0,0,0-10Z"/><rect class="cls-9" x="2.5" y="162.26" width="5" height="5" rx="2.5" ry="2.5"/><text class="cls-11" transform="translate(1.66 122.47)">0</text><text class="cls-11" transform="translate(1.66 7.7)">250</text><line class="cls-12" x1="405.83" y1="126.8" x2="1.13" y2="126.8"/><line class="cls-12" x1="405.83" y1="10.59" x2="1.13" y2="10.59"/><text class="cls-11" transform="translate(1.66 30.65)">200</text><line class="cls-12" x1="405.83" y1="33.83" x2="1.13" y2="33.83"/><text class="cls-11" transform="translate(1.66 53.61)">150</text><line class="cls-12" x1="405.83" y1="57.08" x2="1.13" y2="57.08"/><text class="cls-11" transform="translate(1.66 76.56)">100</text><line class="cls-12" x1="405.83" y1="80.32" x2="1.13" y2="80.32"/><text class="cls-11" transform="translate(1.66 99.52)">50</text><line class="cls-12" x1="405.83" y1="103.56" x2="1.13" y2="103.56"/><rect class="cls-13" x="45.74" y="63.52" width="115.87" height="10" transform="translate(35.15 172.2) rotate(-90)"/><rect class="cls-14" x="65.69" y="83.47" width="75.97" height="10" transform="translate(15.2 192.14) rotate(-90)"/><rect class="cls-13" x="25.65" y="63.52" width="115.86" height="10" transform="translate(15.06 152.11) rotate(-90)"/><rect class="cls-15" x="58.64" y="96.51" width="49.9" height="10" transform="translate(-17.92 185.1) rotate(-90)"/><rect class="cls-13" x="178.17" y="63.52" width="115.86" height="10" transform="translate(167.58 304.63) rotate(-90)"/><rect class="cls-14" x="216.04" y="101.39" width="40.14" height="10" transform="translate(129.72 342.49) rotate(-90)"/><rect class="cls-13" x="158.17" y="63.52" width="115.86" height="10" transform="translate(147.58 284.63) rotate(-90)"/><rect class="cls-15" x="203.11" y="108.46" width="25.99" height="10" transform="translate(102.64 329.57) rotate(-90)"/><rect class="cls-13" x="299.23" y="63.52" width="115.86" height="10" transform="translate(288.64 425.69) rotate(-90)"/><rect class="cls-14" x="350.1" y="114.39" width="14.14" height="10" transform="translate(237.78 476.55) rotate(-90)"/><rect class="cls-13" x="279.23" y="63.52" width="115.86" height="10" transform="translate(268.64 405.69) rotate(-90)"/><rect class="cls-15" x="335.17" y="119.46" width="3.99" height="10" transform="translate(212.7 461.63) rotate(-90)"/><polygon class="cls-9" points="229.1 94.65 219.94 94.65 215.77 97.32 211.77 94.65 203.1 94.65 203.1 80.65 229.1 80.65 229.1 94.65"/><text class="cls-16" transform="translate(211.37 91.75)">56</text></svg>