<svg xmlns="http://www.w3.org/2000/svg" viewBox="0 0 408 172"><defs><style>.cls-1{isolation:isolate;}.cls-10,.cls-16,.cls-2,.cls-6,.cls-7{font-size:10px;}.cls-12,.cls-2,.cls-21{fill:#333;}.cls-10,.cls-16,.cls-2,.cls-7{font-family:Roboto-Regular, Roboto;}.cls-3{letter-spacing:-0.01em;}.cls-4{letter-spacing:-0.01em;}.cls-5{letter-spacing:-0.01em;}.cls-6{fill:#e7473d;font-family:Roboto-Bold, Roboto;font-weight:700;}.cls-15,.cls-17,.cls-7{fill:#58c386;}.cls-8{letter-spacing:0.02em;}.cls-9{letter-spacing:-0.01em;}.cls-10,.cls-19{fill:#45b6e1;}.cls-11,.cls-16{fill:#fff;}.cls-13{fill:#b3b3b3;}.cls-14,.cls-18,.cls-22{fill:none;stroke-miterlimit:10;}.cls-14{stroke:#58c386;}.cls-17,.cls-19{opacity:0.2;}.cls-18{stroke:#45b6e1;}.cls-20{mix-blend-mode:multiply;}.cls-21{font-size:9px;font-family:Roboto-Medium, Roboto;}.cls-22{stroke:#f2f2f2;}</style></defs><title>graph-claims-loss-ratio-2</title><g class="cls-1"><g id="Layer_1" data-name="Layer 1"><text class="cls-2" transform="translate(24 143.52)">Jan</text><text class="cls-2" transform="translate(57.29 143.52)"><tspan class="cls-3">F</tspan><tspan x="5.42" y="0">eb</tspan></text><text class="cls-2" transform="translate(89.9 143.52)">Mar</text><text class="cls-2" transform="translate(124.14 143.52)">Apr</text><text class="cls-2" transform="translate(155.7 143.52)">M<tspan class="cls-4" x="8.73" y="0">a</tspan><tspan x="14.1" y="0">y</tspan></text><text class="cls-2" transform="translate(190.06 143.52)">Jun</text><text class="cls-2" transform="translate(222.46 143.52)">July</text><text class="cls-2" transform="translate(255.98 143.52)"><tspan class="cls-5">A</tspan><tspan x="6.47" y="0">ug</tspan></text><text class="cls-2" transform="translate(289.58 143.52)">Sep</text><text class="cls-2" transform="translate(323.53 143.52)">Oct</text><text class="cls-2" transform="translate(355.64 143.52)">N<tspan class="cls-4" x="7.13" y="0">o</tspan><tspan x="12.76" y="0">v</tspan></text><text class="cls-2" transform="translate(389.11 143.52)">Dec</text><text class="cls-6" transform="translate(13.49 168.76)">Both</text><text class="cls-7" transform="translate(241.15 168.76)">Non - sma<tspan class="cls-8" x="45.42" y="0">r</tspan><tspan x="49.05" y="0">t d</tspan><tspan class="cls-9" x="60.43" y="0">e</tspan><tspan x="65.66" y="0">vice homes (in MN)</tspan></text><text class="cls-10" transform="translate(71.63 168.76)">Sma<tspan class="cls-8" x="20.14" y="0">r</tspan><tspan x="23.76" y="0">t d</tspan><tspan class="cls-9" x="35.15" y="0">e</tspan><tspan x="40.38" y="0">vice homes (in MN)</tspan></text><circle class="cls-11" cx="5" cy="164.76" r="4.5"/><path class="cls-12" d="M5,160.76a4,4,0,1,1-4,4,4,4,0,0,1,4-4m0-1a5,5,0,1,0,5,5,5,5,0,0,0-5-5Z"/><circle class="cls-11" cx="226.15" cy="164.76" r="4.5"/><path class="cls-13" d="M226.15,160.76a4,4,0,1,1-4,4,4,4,0,0,1,4-4m0-1a5,5,0,1,0,5,5,5,5,0,0,0-5-5Z"/><circle class="cls-11" cx="59.5" cy="164.76" r="4.5"/><path class="cls-13" d="M59.5,160.76a4,4,0,1,1-4,4,4,4,0,0,1,4-4m0-1a5,5,0,1,0,5,5,5,5,0,0,0-5-5Z"/><rect class="cls-12" x="2.5" y="162.26" width="5" height="5" rx="2.5" ry="2.5"/><path class="cls-14" d="M1.66,26.49c25.11,0,47.51,2.73,67.19,19s56.33,7.63,95.7,15,84.74.6,110.63-3.41c46.83-7.26,59.26-42.53,114-44.76H405.5"/><circle class="cls-15" cx="63.5" cy="41.29" r="1.77"/><circle class="cls-15" cx="96.17" cy="55.32" r="1.77"/><circle class="cls-15" cx="165" cy="60.61" r="1.77"/><circle class="cls-15" cx="197.5" cy="63.75" r="1.77"/><circle class="cls-15" cx="264.75" cy="58.84" r="1.77"/><circle class="cls-15" cx="328.5" cy="33.83" r="1.77"/><circle class="cls-15" cx="231" cy="62.38" r="1.77"/><circle class="cls-15" cx="297" cy="50.82" r="1.77"/><circle class="cls-15" cx="363.75" cy="16.55" r="1.77"/><circle class="cls-15" cx="398.75" cy="12.32" r="1.77"/><circle class="cls-15" cx="133.23" cy="57.08" r="1.77"/><circle class="cls-15" cx="32.27" cy="29.27" r="1.77"/><polygon class="cls-12" points="77.5 33.93 67.33 33.93 63.16 36.6 59.16 33.93 49.5 33.93 49.5 19.93 77.5 19.93 77.5 33.93"/><text class="cls-16" transform="translate(53.5 31.03)">79.3</text><path class="cls-17" d="M1.66,26.49c25.11,0,47.51,2.73,67.19,19s56.33,7.63,95.7,15,84.74.6,110.63-3.41c46.83-7.26,59.26-42.53,114-44.76H405.5V126.8H1.13Z"/><path class="cls-18" d="M1.66,57.08c10.86.08,39.37,4.2,59,10.8s19.68,12.61,40,4.61,36.65-6.67,67.19-1.33,47.51-1.85,85.52,3.41,55.66-4.87,92.31-10.81,59.73-6.68,59.73-6.68"/><path class="cls-19" d="M1.66,57.08c10.86.08,39.37,4.2,59,10.8s19.68,12.61,40,4.61,36.65-6.67,67.19-1.33,47.51-1.85,85.52,3.41,55.66-4.87,92.31-10.81,59.73-6.68,59.73-6.68V126.8H1.13Z"/><g class="cls-20"><text class="cls-21" transform="translate(1.66 122.47)">0</text><text class="cls-21" transform="translate(1.66 7.7)">100</text><line class="cls-22" x1="405.83" y1="126.8" x2="1.13" y2="126.8"/><line class="cls-22" x1="405.83" y1="10.59" x2="1.13" y2="10.59"/><text class="cls-21" transform="translate(1.66 30.65)">80</text><line class="cls-22" x1="405.83" y1="33.83" x2="1.13" y2="33.83"/><text class="cls-21" transform="translate(1.66 53.61)">60</text><line class="cls-22" x1="405.83" y1="57.08" x2="1.13" y2="57.08"/><text class="cls-21" transform="translate(1.66 76.56)">40</text><line class="cls-22" x1="405.83" y1="80.32" x2="1.13" y2="80.32"/><text class="cls-21" transform="translate(1.66 99.52)">20</text><line class="cls-22" x1="405.83" y1="103.56" x2="1.13" y2="103.56"/></g></g></g></svg>