<svg id="Layer_1" data-name="Layer 1" xmlns="http://www.w3.org/2000/svg" viewBox="0 0 222 155"><defs><style>.cls-1,.cls-17{fill:#58c386;}.cls-1,.cls-2,.cls-3{opacity:0.2;}.cls-16,.cls-2{fill:#662d91;}.cls-14,.cls-3{fill:#f49d37;}.cls-4{fill:#fff;}.cls-5{font-size:10px;fill:#333;font-family:Roboto-Regular, Roboto;}.cls-10,.cls-11,.cls-6,.cls-7,.cls-8,.cls-9{fill:none;stroke-miterlimit:10;}.cls-6,.cls-9{stroke:#f49d37;}.cls-11,.cls-7{stroke:#58c386;}.cls-10,.cls-8{stroke:#662d91;}.cls-10,.cls-11,.cls-9{stroke-width:3px;}.cls-12{letter-spacing:-0.01em;}.cls-13{letter-spacing:-0.02em;}.cls-15{letter-spacing:0.01em;}</style></defs><title>graph-claims-vendors-3</title><path class="cls-1" d="M119.28,67.5l.18-65h-.18A65,65,0,0,0,76.86,18.25Z"/><path class="cls-2" d="M119.28,67.5,77.07,18.07A65,65,0,0,0,58.75,43.82Z"/><path class="cls-3" d="M119.28,67.5,58.78,43.74A65,65,0,1,0,119.41,2.5Z"/><circle class="cls-4" cx="119.28" cy="67.5" r="53.52" transform="translate(-1.23 2.22) rotate(-1.06)"/><text class="cls-5" transform="translate(203.43 19.98)">81%</text><polyline class="cls-6" points="170.19 27.27 183.9 16.64 194.68 16.64"/><text class="cls-5" transform="translate(21.75 9.98)">12%</text><polyline class="cls-7" points="83.06 13.54 77.66 6.63 44.45 6.63"/><text class="cls-5" transform="translate(21.75 33.27)">7%</text><polyline class="cls-8" points="46.61 29.93 56.72 29.93 63.8 33.63"/><path class="cls-9" d="M58.78,43.74A65,65,0,1,0,119.41,2.5"/><path class="cls-10" d="M77.07,18.07A65,65,0,0,0,58.75,43.82"/><path class="cls-11" d="M119.46,2.5h-.18A65,65,0,0,0,76.86,18.25"/><text class="cls-5" transform="translate(10.56 152.29)">A<tspan class="cls-12" x="6.52" y="0">D</tspan><tspan class="cls-13" x="12.95" y="0">T</tspan></text><circle class="cls-14" cx="3" cy="149.57" r="3"/><text class="cls-5" transform="translate(61.28 152.29)">Cana<tspan class="cls-15" x="22.91" y="0">r</tspan><tspan x="26.38" y="0">y</tspan></text><circle class="cls-16" cx="53.72" cy="149.57" r="3"/><text class="cls-5" transform="translate(118.33 152.29)">Vivint</text><circle class="cls-17" cx="110.77" cy="149.57" r="3"/></svg>