<svg id="Layer_1" data-name="Layer 1" xmlns="http://www.w3.org/2000/svg" viewBox="0 0 245 200"><defs><style>.cls-1,.cls-22{fill:#58c386;}.cls-1,.cls-2,.cls-3,.cls-4{opacity:0.2;}.cls-14,.cls-2{fill:#662d91;}.cls-27,.cls-3{fill:#f49d37;}.cls-17,.cls-4{fill:#f06088;}.cls-5{fill:#fff;}.cls-28,.cls-29,.cls-30,.cls-31,.cls-6,.cls-7,.cls-8,.cls-9{fill:none;stroke-miterlimit:10;}.cls-29,.cls-6{stroke:#58c386;}.cls-6,.cls-7,.cls-8,.cls-9{stroke-width:3px;}.cls-28,.cls-7{stroke:#f49d37;}.cls-31,.cls-8{stroke:#662d91;}.cls-30,.cls-9{stroke:#f06088;}.cls-10{font-size:10px;fill:#333;font-family:Roboto-Regular, Roboto;}.cls-11,.cls-12,.cls-13,.cls-16,.cls-21,.cls-24,.cls-25,.cls-26{fill:gray;}.cls-12{letter-spacing:-0.06em;}.cls-13{letter-spacing:-0.01em;}.cls-15,.cls-26{letter-spacing:-0.01em;}.cls-16{letter-spacing:-0.01em;}.cls-18{letter-spacing:0.01em;}.cls-19{letter-spacing:-0.01em;}.cls-20{fill:#666;}.cls-21{letter-spacing:-0.02em;}.cls-23,.cls-24{letter-spacing:-0.01em;}.cls-25{letter-spacing:0.02em;}</style></defs><title>graph-dp-security-detectors-vs-customers</title><path class="cls-1" d="M113.76,66.93,58.11,33.35A65,65,0,1,0,176.41,49.62Z"/><path class="cls-2" d="M113.76,66.93l55.11-34.47A65,65,0,0,0,73.3,16.06Z"/><path class="cls-3" d="M113.76,66.93,73.3,16.06A65,65,0,0,0,58.19,33.21Z"/><path class="cls-4" d="M113.76,66.93l62.63-17.41a65,65,0,0,0-7.52-17.06Z"/><circle class="cls-5" cx="113.76" cy="66.93" r="53.52" transform="translate(-1.22 2.12) rotate(-1.06)"/><path class="cls-6" d="M58.11,33.35A65,65,0,1,0,176.41,49.62"/><path class="cls-7" d="M73.3,16.06A65,65,0,0,0,58.19,33.21"/><path class="cls-8" d="M168.87,32.46A65,65,0,0,0,73.3,16.06"/><path class="cls-9" d="M176.39,49.52a65,65,0,0,0-7.52-17.06"/><text class="cls-10" transform="translate(10.56 152.13)">Intrusion<tspan class="cls-11" x="39.2" y="0" xml:space="preserve"> (doo</tspan><tspan class="cls-12" x="62.14" y="0">r</tspan><tspan class="cls-11" x="64.93" y="0">, window &amp; glass b</tspan><tspan class="cls-13" x="146.72" y="0">r</tspan><tspan class="cls-11" x="150.01" y="0">eak sensors)</tspan></text><circle class="cls-14" cx="3" cy="149.41" r="3"/><text class="cls-10" transform="translate(10.56 167.13)">Envi<tspan class="cls-15" x="18.47" y="0">r</tspan><tspan x="21.76" y="0">onmental</tspan><tspan class="cls-11" x="63.69" y="0" xml:space="preserve"> (carbon mon</tspan><tspan class="cls-16" x="122.93" y="0">o</tspan><tspan class="cls-11" x="128.54" y="0">xide, fi</tspan><tspan class="cls-13" x="157.19" y="0">r</tspan><tspan class="cls-11" x="160.48" y="0">e, flood sensors)</tspan></text><circle class="cls-17" cx="3" cy="164.41" r="3"/><text class="cls-10" transform="translate(10.56 182.13)">Su<tspan class="cls-18" x="11.45" y="0">r</tspan><tspan class="cls-19" x="14.92" y="0">v</tspan><tspan x="19.7" y="0">eillance</tspan><tspan class="cls-20" x="53.76" y="0"> </tspan><tspan class="cls-11" x="56.24" y="0">(indoo</tspan><tspan class="cls-12" x="84.65" y="0">r</tspan><tspan class="cls-11" x="87.43" y="0">, outdoor &amp; doorbell came</tspan><tspan class="cls-21" x="201.35" y="0">r</tspan><tspan class="cls-11" x="204.54" y="0">as)</tspan></text><circle class="cls-22" cx="3" cy="179.41" r="3"/><text class="cls-10" transform="translate(10.56 197.13)">Li<tspan class="cls-23" x="7.81" y="0">f</tspan><tspan x="11.16" y="0">e sa</tspan><tspan class="cls-23" x="29.53" y="0">f</tspan><tspan x="32.89" y="0">ety</tspan><tspan class="cls-11" x="46.18" y="0" xml:space="preserve"> (li</tspan><tspan class="cls-24" x="56.93" y="0">f</tspan><tspan class="cls-11" x="60.28" y="0">e ale</tspan><tspan class="cls-25" x="81.22" y="0">r</tspan><tspan class="cls-11" x="84.85" y="0">t and panic but</tspan><tspan class="cls-26" x="150.76" y="0">t</tspan><tspan class="cls-11" x="153.93" y="0">ons)</tspan></text><circle class="cls-27" cx="3" cy="194.41" r="3"/><text class="cls-10" transform="translate(8.45 117.33)">60%</text><text class="cls-10" transform="translate(209.89 38.93)">4%</text><text class="cls-10" transform="translate(209.89 10.77)">30%</text><text class="cls-10" transform="translate(14.06 16.06)">6%</text><polyline class="cls-28" points="64.4 24.63 48.76 13.41 34.62 13.41"/><polyline class="cls-29" points="61.78 106.99 46.14 114.2 32 114.2"/><polyline class="cls-30" points="173.45 40.66 189.09 35.33 206.17 35.33"/><polyline class="cls-31" points="158.86 20.12 192.03 7.43 206.17 7.43"/></svg>