<svg id="Layer_1" data-name="Layer 1" xmlns="http://www.w3.org/2000/svg" viewBox="0 0 406 166"><defs><style>.cls-1{font-size:12px;font-family:Roboto-Bold, Roboto;font-weight:700;}.cls-1,.cls-3{fill:#333;}.cls-2{letter-spacing:-0.01em;}.cls-3{font-size:9px;font-family:Roboto-Medium, Roboto;}.cls-4{letter-spacing:-0.02em;}.cls-5{letter-spacing:-0.01em;}.cls-6{letter-spacing:0.01em;}.cls-7{fill:#f2f2f2;}.cls-8{fill:#58c386;}.cls-9{fill:#e7473d;stroke:#fff;stroke-miterlimit:10;stroke-width:2px;}.cls-10{fill:#45b6e1;}.cls-11{fill:#f49d37;}</style></defs><title>graph-claims-notification-2</title><text class="cls-1" transform="translate(0 10.27)">Smo<tspan class="cls-2" x="24.55" y="0">k</tspan><tspan x="30.84" y="0">e / CO detection</tspan></text><text class="cls-3" transform="translate(380.35 29.21)">15MN</text><text class="cls-3" transform="translate(91.26 46.5)">20%</text><text class="cls-1" transform="translate(0 67.79)"><tspan class="cls-4">W</tspan><tspan x="10.3" y="0">ater leak detection</tspan></text><text class="cls-1" transform="translate(0 125.79)">Bu<tspan class="cls-5" x="14.37" y="0">r</tspan><tspan x="18.64" y="0">gla</tspan><tspan class="cls-6" x="35.1" y="0">r</tspan><tspan x="39.59" y="0">y detection</tspan></text><rect class="cls-7" y="23.73" width="364.85" height="6" rx="3" ry="3"/><rect class="cls-8" y="23.73" width="99.85" height="6" rx="3" ry="3"/><circle class="cls-9" cx="99.68" cy="26.64" r="7"/><text class="cls-3" transform="translate(380.35 87.08)">15MN</text><text class="cls-3" transform="translate(111.26 104.38)">29%</text><rect class="cls-7" y="81.6" width="364.85" height="6" rx="3" ry="3"/><rect class="cls-10" y="81.6" width="119.85" height="6" rx="3" ry="3"/><circle class="cls-9" cx="119.68" cy="84.51" r="7"/><text class="cls-3" transform="translate(380.35 145.36)">15MN</text><text class="cls-3" transform="translate(101.26 162.66)">23%</text><rect class="cls-7" y="139.88" width="364.85" height="6" rx="3" ry="3"/><rect class="cls-11" y="139.88" width="109.85" height="6" rx="3" ry="3"/><circle class="cls-9" cx="109.68" cy="142.79" r="7"/></svg>