<svg id="Layer_1" data-name="Layer 1" xmlns="http://www.w3.org/2000/svg" viewBox="0 0 406 172"><defs><style>.cls-1,.cls-10,.cls-19,.cls-6,.cls-7{font-size:10px;}.cls-1,.cls-12,.cls-14{fill:#333;}.cls-1,.cls-10,.cls-19,.cls-7{font-family:Roboto-Regular, Roboto;}.cls-2{letter-spacing:-0.01em;}.cls-3{letter-spacing:-0.02em;}.cls-4{letter-spacing:-0.01em;}.cls-5{letter-spacing:0.01em;}.cls-6{fill:#e7473d;font-family:Roboto-Bold, Roboto;font-weight:700;}.cls-17,.cls-7{fill:#58c386;}.cls-8{letter-spacing:0.02em;}.cls-9{letter-spacing:-0.01em;}.cls-10,.cls-18{fill:#45b6e1;}.cls-11,.cls-19{fill:#fff;}.cls-13{fill:#b3b3b3;}.cls-14{font-size:9px;font-family:Roboto-Medium, Roboto;}.cls-15{fill:none;stroke:#f2f2f2;stroke-miterlimit:10;}.cls-16{fill:#f2f2f2;}</style></defs><title>graph-claims-loss-payment-1</title><text class="cls-1" transform="translate(42.96 143.52)">Smo<tspan class="cls-2" x="20.4" y="0">k</tspan><tspan x="25.37" y="0">e / CO detection</tspan></text><text class="cls-1" transform="translate(181.14 143.52)"><tspan class="cls-3">W</tspan><tspan x="8.71" y="0">ater leak detection</tspan></text><text class="cls-1" transform="translate(327.27 143.52)">Bu<tspan class="cls-4" x="11.74" y="0">r</tspan><tspan x="15.03" y="0">gla</tspan><tspan class="cls-5" x="28.51" y="0">r</tspan><tspan x="31.98" y="0">y</tspan></text><text class="cls-6" transform="translate(13.5 168.76)">Both</text><text class="cls-7" transform="translate(241.15 168.76)">Non - sma<tspan class="cls-8" x="45.42" y="0">r</tspan><tspan x="49.05" y="0">t d</tspan><tspan class="cls-9" x="60.43" y="0">e</tspan><tspan x="65.66" y="0">vice homes</tspan></text><text class="cls-10" transform="translate(73 168.76)">Sma<tspan class="cls-8" x="20.14" y="0">r</tspan><tspan x="23.76" y="0">t d</tspan><tspan class="cls-9" x="35.15" y="0">e</tspan><tspan x="40.38" y="0">vice homes</tspan></text><circle class="cls-11" cx="5" cy="164.76" r="4.5"/><path class="cls-12" d="M5,160.76a4,4,0,1,1-4,4,4,4,0,0,1,4-4m0-1a5,5,0,1,0,5,5,5,5,0,0,0-5-5Z"/><circle class="cls-11" cx="226.15" cy="164.76" r="4.5"/><path class="cls-13" d="M226.15,160.76a4,4,0,1,1-4,4,4,4,0,0,1,4-4m0-1h0a5,5,0,0,0,0,10h0a5,5,0,0,0,0-10Z"/><circle class="cls-11" cx="59.5" cy="164.76" r="4.5"/><path class="cls-13" d="M59.5,160.76a4,4,0,1,1-4,4,4,4,0,0,1,4-4m0-1h0a5,5,0,0,0,0,10h0a5,5,0,0,0,0-10Z"/><rect class="cls-12" x="2.5" y="162.26" width="5" height="5" rx="2.5" ry="2.5"/><text class="cls-14" transform="translate(1.66 122.47)">0</text><text class="cls-14" transform="translate(1.66 7.7)">1000</text><line class="cls-15" x1="405.83" y1="126.8" x2="1.13" y2="126.8"/><line class="cls-15" x1="405.83" y1="10.59" x2="1.13" y2="10.59"/><text class="cls-14" transform="translate(1.66 30.65)">800</text><line class="cls-15" x1="405.83" y1="33.83" x2="1.13" y2="33.83"/><text class="cls-14" transform="translate(1.66 53.61)">600</text><line class="cls-15" x1="405.83" y1="57.08" x2="1.13" y2="57.08"/><text class="cls-14" transform="translate(1.66 76.56)">400</text><line class="cls-15" x1="405.83" y1="80.32" x2="1.13" y2="80.32"/><text class="cls-14" transform="translate(1.66 99.52)">200</text><line class="cls-15" x1="405.83" y1="103.56" x2="1.13" y2="103.56"/><rect class="cls-16" x="45.74" y="63.52" width="115.87" height="10" transform="translate(35.15 172.2) rotate(-90)"/><rect class="cls-17" x="85.46" y="103.24" width="36.42" height="10" transform="translate(-4.57 211.92) rotate(-90)"/><rect class="cls-16" x="25.65" y="63.52" width="115.86" height="10" transform="translate(15.06 152.11) rotate(-90)"/><rect class="cls-18" x="73.93" y="111.8" width="19.31" height="10" transform="translate(-33.22 200.39) rotate(-90)"/><rect class="cls-16" x="178.17" y="63.52" width="115.86" height="10" transform="translate(167.58 304.63) rotate(-90)"/><rect class="cls-17" x="204.75" y="90.11" width="62.7" height="10" transform="translate(141 331.21) rotate(-90)"/><rect class="cls-16" x="158.17" y="63.52" width="115.86" height="10" transform="translate(147.58 284.63) rotate(-90)"/><rect class="cls-18" x="197.11" y="102.46" width="37.99" height="10" transform="translate(108.64 323.57) rotate(-90)"/><rect class="cls-16" x="299.23" y="63.52" width="115.86" height="10" transform="translate(288.64 425.69) rotate(-90)"/><rect class="cls-17" x="352.34" y="116.63" width="9.65" height="10" transform="translate(235.54 478.8) rotate(-90)"/><rect class="cls-16" x="279.23" y="63.52" width="115.86" height="10" transform="translate(268.64 405.69) rotate(-90)"/><rect class="cls-18" x="335.17" y="119.46" width="3.99" height="10" transform="translate(212.7 461.63) rotate(-90)"/><polygon class="cls-12" points="229.1 83.65 219.94 83.65 215.77 86.32 211.77 83.65 203.1 83.65 203.1 69.65 229.1 69.65 229.1 83.65"/><text class="cls-19" transform="translate(208.56 80.75)">359</text></svg>