<svg id="Layer_1" data-name="Layer 1" xmlns="http://www.w3.org/2000/svg" viewBox="0 0 231 166"><defs><style>.cls-1,.cls-12{font-size:10px;font-family:Roboto-Regular, Roboto;}.cls-1,.cls-11,.cls-3{fill:#333;}.cls-2{letter-spacing:-0.01em;}.cls-3{font-size:9px;font-family:Roboto-Medium, Roboto;}.cls-4{letter-spacing:-0.02em;}.cls-5{letter-spacing:0.01em;}.cls-6{letter-spacing:-0.01em;}.cls-7,.cls-9{fill:none;stroke-miterlimit:10;}.cls-7{stroke:#e6e6e6;stroke-width:1.04px;}.cls-10,.cls-8{fill:#58c386;}.cls-8{opacity:0.2;}.cls-9{stroke:#58c386;}.cls-12{fill:#fff;}</style></defs><title>graph-ms-adherance-level</title><text class="cls-1" transform="translate(26.12 153.99)">Smo<tspan class="cls-2" x="20.4" y="0">k</tspan><tspan x="25.37" y="0">e /</tspan><tspan x="-9.79" y="10">Co detec</tspan><tspan class="cls-2" x="29.64" y="10">t</tspan><tspan x="32.81" y="10">ors</tspan></text><text class="cls-3" transform="translate(0.52 128.7)">0%</text><text class="cls-3" transform="translate(0.52 108.7)">20%</text><text class="cls-3" transform="translate(0.52 88.7)">40%</text><text class="cls-3" transform="translate(0.52 68.7)">60%</text><text class="cls-3" transform="translate(0.52 48.7)">80%</text><text class="cls-3" transform="translate(0.52 28.7)">100%</text><text class="cls-3" transform="translate(0.52 8.7)">120%</text><text class="cls-1" transform="translate(103.38 153.99)"><tspan class="cls-4">W</tspan><tspan x="8.71" y="0">ater leak</tspan><tspan x="2.33" y="10">detec</tspan><tspan class="cls-2" x="27.07" y="10">t</tspan><tspan x="30.23" y="10">ors</tspan></text><text class="cls-1" transform="translate(178.17 153.99)">Security / <tspan x="-4.45" y="10">Su</tspan><tspan class="cls-5" x="6.99" y="10">r</tspan><tspan class="cls-6" x="10.46" y="10">v</tspan><tspan x="15.24" y="10">eillance</tspan></text><line class="cls-7" x1="230.36" y1="130.92" y2="130.92"/><line class="cls-7" x1="230.36" y1="110.7" y2="110.7"/><line class="cls-7" x1="230.36" y1="90.7" y2="90.7"/><line class="cls-7" x1="230.36" y1="70.7" y2="70.7"/><line class="cls-7" x1="230.36" y1="50.7" y2="50.7"/><line class="cls-7" x1="230.36" y1="30.7" y2="30.7"/><line class="cls-7" x1="230.36" y1="10.7" y2="10.7"/><path class="cls-8" d="M0,60.27S101.17,35.36,125,33.86c42.33-2.65,65,2.54,105.35,16.83v80H0Z"/><path class="cls-9" d="M0,60.27S99.51,36.16,123.35,34.64c39.67-2.53,61.33.7,107,16.06"/><circle class="cls-10" cx="126.78" cy="34.24" r="1.77"/><circle class="cls-10" cx="44.75" cy="49.62" r="1.77"/><circle class="cls-10" cx="202.36" cy="42.2" r="1.77"/><polygon class="cls-11" points="137.78 27.77 131.61 27.77 127.45 30.44 123.45 27.77 115.78 27.77 115.78 13.77 137.78 13.77 137.78 27.77"/><text class="cls-12" transform="translate(117.79 24.87)">89%</text></svg>