<svg id="Layer_1" data-name="Layer 1" xmlns="http://www.w3.org/2000/svg" viewBox="0 0 24 24"><defs><style>.cls-1{fill:#e7473d;}</style></defs><title>help</title><path class="cls-1" d="M12,0A12,12,0,1,0,24,12,12,12,0,0,0,12,0Zm0,1.09a10.87,10.87,0,0,1,5.78,1.65L15.58,5A7.87,7.87,0,0,0,8.42,5L6.22,2.74A10.87,10.87,0,0,1,12,1.09ZM5.31,3.38,7.46,5.52A8,8,0,0,0,5.53,7.45L3.38,5.31A11,11,0,0,1,5.31,3.38Zm13.38,0a11,11,0,0,1,1.93,1.93L18.47,7.45a8,8,0,0,0-1.93-1.93ZM12,5.18A6.82,6.82,0,1,1,5.18,12,6.81,6.81,0,0,1,12,5.18Zm-9.26,1L5,8.42a7.87,7.87,0,0,0,0,7.16L2.74,17.79a11,11,0,0,1,0-11.57Zm18.51,0a11,11,0,0,1,0,11.57L19,15.58a7.87,7.87,0,0,0,0-7.16ZM5.53,16.55a8,8,0,0,0,1.93,1.93L5.31,20.62a11,11,0,0,1-1.93-1.93Zm12.94,0,2.15,2.14a11,11,0,0,1-1.93,1.93l-2.15-2.14A8,8,0,0,0,18.47,16.55ZM8.42,19a7.87,7.87,0,0,0,7.16,0l2.2,2.21a10.92,10.92,0,0,1-11.56,0Z"/></svg>