<svg id="Layer_1" data-name="Layer 1" xmlns="http://www.w3.org/2000/svg" viewBox="0 0 139 36"><defs><style>.cls-1{fill:#fff;}</style></defs><title>logo</title><path class="cls-1" d="M125.7,13.65V8.26h-2.85V10.8L112,0,92.92,19.13a9.15,9.15,0,0,1,3,1L112,4,127.82,19.8a9.16,9.16,0,0,1,3.25-.78Z"/><rect class="cls-1" x="109.57" y="11.31" width="1.92" height="1.92"/><rect class="cls-1" x="112.45" y="11.31" width="1.92" height="1.92"/><rect class="cls-1" x="109.57" y="14.19" width="1.92" height="1.92"/><rect class="cls-1" x="112.45" y="14.19" width="1.92" height="1.92"/><path class="cls-1" d="M6.79,36A7.22,7.22,0,0,1,.46,32.64,2.64,2.64,0,0,1,0,31.14c.06-.63.82-.85,1.07-.34a6.19,6.19,0,0,0,2.2,2.64A6.4,6.4,0,0,0,7,34.49a5.73,5.73,0,0,0,3.88-1.43,4.73,4.73,0,0,0,1.62-3.78v-.19a5,5,0,0,0-.77-2.71,6.83,6.83,0,0,0-2-2c-.8-.54-1.7-1.13-2.65-1.73L4.5,20.91a7.38,7.38,0,0,1-2.12-2.06,4.82,4.82,0,0,1-.87-2.77v-.22A4.39,4.39,0,0,1,3,12.28,5.61,5.61,0,0,1,6.7,11.06a5.84,5.84,0,0,1,4.81,2.24.76.76,0,1,1-1.23.89,5,5,0,0,0-1.11-.92,5,5,0,0,0-2.62-.71,3.49,3.49,0,0,0-2.42.88,3,3,0,0,0-1,2.39V16a4.29,4.29,0,0,0,2.07,3.36A22.45,22.45,0,0,0,7.3,20.7c.79.45,1.58.94,2.36,1.45a17.74,17.74,0,0,1,2.17,1.66A7.19,7.19,0,0,1,13.47,26a6.53,6.53,0,0,1,.64,2.89v.31a6.26,6.26,0,0,1-2.12,5A7.67,7.67,0,0,1,6.79,36Z"/><path class="cls-1" d="M69.11,15.15h3.38V23.1a7.23,7.23,0,0,1,1.82-1.83,4.75,4.75,0,0,1,2.8-.77A4.94,4.94,0,0,1,81,22a6,6,0,0,1,1.37,4.14v9.4H79V27.18a3.92,3.92,0,0,0-.82-2.67,3,3,0,0,0-2.34-.94,3.18,3.18,0,0,0-2.41,1,3.75,3.75,0,0,0-.92,2.7v8.34H69.11Z"/><path class="cls-1" d="M100.51,20.8h3.38V23a9.66,9.66,0,0,1,.78-1,5.51,5.51,0,0,1,1-.81,4.66,4.66,0,0,1,1.23-.57,5.19,5.19,0,0,1,1.52-.21,4.87,4.87,0,0,1,2.7.71,4.72,4.72,0,0,1,1.69,1.89,7.25,7.25,0,0,1,2.11-1.89,5.62,5.62,0,0,1,2.89-.71A5,5,0,0,1,121.6,22,5.9,5.9,0,0,1,123,26.14v9.43h-3.38V27.18a4,4,0,0,0-.78-2.69,2.74,2.74,0,0,0-2.21-.92,3,3,0,0,0-2.28.94,3.84,3.84,0,0,0-.88,2.73v8.34h-3.38V27.15a4,4,0,0,0-.78-2.66,2.74,2.74,0,0,0-2.21-.92,2.91,2.91,0,0,0-2.29,1,4,4,0,0,0-.87,2.71v8.31h-3.38Z"/><path class="cls-1" d="M131.75,35.91a7.88,7.88,0,0,1-3-.56,7.15,7.15,0,0,1-4-4,8,8,0,0,1-.59-3.12v-.06a8.36,8.36,0,0,1,.53-3,7.51,7.51,0,0,1,1.5-2.45,7,7,0,0,1,2.28-1.65,6.91,6.91,0,0,1,2.91-.6,7,7,0,0,1,3.09.64,6.36,6.36,0,0,1,2.21,1.73A7.55,7.55,0,0,1,138,25.4a10.18,10.18,0,0,1,.45,3q0,.22,0,.46c0,.16,0,.32,0,.49H127.56A4.31,4.31,0,0,0,129,32.17a4.25,4.25,0,0,0,2.81,1,5,5,0,0,0,2.18-.45,7.08,7.08,0,0,0,1.82-1.31l2,1.76a8.17,8.17,0,0,1-2.53,2A7.59,7.59,0,0,1,131.75,35.91Zm3.36-8.75a5.82,5.82,0,0,0-.36-1.52,4.1,4.1,0,0,0-.76-1.24,3.33,3.33,0,0,0-1.13-.83,3.63,3.63,0,0,0-1.5-.29,3.41,3.41,0,0,0-2.59,1.08,4.86,4.86,0,0,0-1.24,2.81Z"/><path class="cls-1" d="M34.22,35.56a.3.3,0,0,1-.3-.3V25.93a3.81,3.81,0,0,0-1.1-2.81A3.56,3.56,0,0,0,30.16,22a3.85,3.85,0,0,0-2.77,1.17,3.61,3.61,0,0,0-1.21,2.7v9.4a.3.3,0,0,1-.3.3h-1a.3.3,0,0,1-.3-.3v-9.4a3.76,3.76,0,0,0-1.11-2.72A3.53,3.53,0,0,0,20.81,22a4,4,0,0,0-3.9,3.87v9.4a.3.3,0,0,1-.3.3h-1a.3.3,0,0,1-.3-.3V21.16a.3.3,0,0,1,.3-.3h1a.3.3,0,0,1,.3.3V22.3a6.26,6.26,0,0,1,1.42-1.05A5.53,5.53,0,0,1,21,20.52a4.49,4.49,0,0,1,2.73,1,5.59,5.59,0,0,1,1.59,1.87A4.8,4.8,0,0,1,27,21.48a5.94,5.94,0,0,1,3.41-1A5,5,0,0,1,34,22a5.23,5.23,0,0,1,1.53,3.95v9.34a.3.3,0,0,1-.3.3Z"/><path class="cls-1" d="M44.48,35.91A7.52,7.52,0,0,1,39,33.64a7.6,7.6,0,0,1,0-10.86,7.53,7.53,0,0,1,5.47-2.26,7.86,7.86,0,0,1,4,1.11,6.43,6.43,0,0,1,2.1,1.9V21.16a.3.3,0,0,1,.3-.3h1a.3.3,0,0,1,.3.3v14.1a.3.3,0,0,1-.3.3h-1a.3.3,0,0,1-.3-.3V32.84a7,7,0,0,1-2.18,2A7.61,7.61,0,0,1,44.48,35.91Zm0-13.91a5.92,5.92,0,0,0-4.34,1.87,6.07,6.07,0,0,0-1.84,4.38,6.28,6.28,0,0,0,6.2,6.19,5.83,5.83,0,0,0,4.31-1.84,6.21,6.21,0,0,0,0-8.74A5.84,5.84,0,0,0,44.51,22Z"/><path class="cls-1" d="M66.34,35.75a5.62,5.62,0,0,1-4-1.57,5.33,5.33,0,0,1-1.66-4V15.49a.3.3,0,0,1,.3-.3h1a.3.3,0,0,1,.3.3v5.4h4a.3.3,0,0,1,.3.3v.88a.3.3,0,0,1-.3.3h-4v7.78a4,4,0,0,0,4.05,4.12.3.3,0,0,1,.3.3v.88A.3.3,0,0,1,66.34,35.75Z"/><path class="cls-1" d="M59.48,21.15c0-.27-.26-.27-.39-.27a5.54,5.54,0,0,0-2.81.73A5.13,5.13,0,0,0,55,22.66V21.18a.3.3,0,0,0-.3-.3h-1a.3.3,0,0,0-.3.3V35.26a.3.3,0,0,0,.3.3h1a.3.3,0,0,0,.3-.3v-9a3.65,3.65,0,0,1,1.18-2.7,3.73,3.73,0,0,1,2.72-1.17c.72,0,.61-.38.61-.38Z"/><path class="cls-1" d="M91.38,36a7.78,7.78,0,1,1,7.78-7.78A7.79,7.79,0,0,1,91.38,36Zm0-14.65a6.87,6.87,0,1,0,6.87,6.87A6.88,6.88,0,0,0,91.38,21.34Z"/><path class="cls-1" d="M38.46,19.26l-.6-.6a9.32,9.32,0,0,1,13.16,0l-.6.6A8.47,8.47,0,0,0,38.46,19.26Z"/><path class="cls-1" d="M53.68,16a13.07,13.07,0,0,0-18.46,0l-.6-.6a13.92,13.92,0,0,1,19.66,0Z"/><path class="cls-1" d="M57.21,12.48a18,18,0,0,0-25.52,0l-.6-.6A18.77,18.77,0,0,1,44.45,6.35h0A18.77,18.77,0,0,1,57.8,11.89Z"/><path class="cls-1" d="M91.39,34A6.06,6.06,0,0,1,89,33.57a5.86,5.86,0,0,1-1.88-1.24,5.59,5.59,0,0,1-1.24-1.84,5.72,5.72,0,0,1-.44-2.24v0A5.66,5.66,0,0,1,85.93,26a5.82,5.82,0,0,1,3.13-3.11,6,6,0,0,1,2.38-.46,6.11,6.11,0,0,1,2.38.45,5.72,5.72,0,0,1,3.12,3.08,5.7,5.7,0,0,1,.44,2.25v0a5.61,5.61,0,0,1-.45,2.24,5.79,5.79,0,0,1-3.14,3.11A6.07,6.07,0,0,1,91.39,34Z"/></svg>