<svg id="Layer_1" data-name="Layer 1" xmlns="http://www.w3.org/2000/svg" viewBox="0 0 16 16"><defs><style>.cls-1{fill:#ccc;}</style></defs><title>notification</title><path class="cls-1" d="M8.53,1.14V.44A.43.43,0,0,0,8.1,0a.45.45,0,0,0-.46.45l0,.68A5.86,5.86,0,0,0,2.26,6.88l0,4.26L.14,13.23a.48.48,0,0,0-.11.49A.43.43,0,0,0,.44,14H5.58A2.42,2.42,0,0,0,8,16a2.48,2.48,0,0,0,2.42-2h5.15a.47.47,0,0,0,.46-.45.46.46,0,0,0-.17-.34l-2-2.06,0-4.26A5.7,5.7,0,0,0,8.53,1.14ZM8,15.09A1.53,1.53,0,0,1,6.5,14h3A1.54,1.54,0,0,1,8,15.09Zm4.94-8.21,0,4.44a.36.36,0,0,0,.13.31l1.45,1.46-4.48,0H1.52L3,11.64a.41.41,0,0,0,.13-.31l0-4.44A4.93,4.93,0,0,1,8.06,2,4.82,4.82,0,0,1,12.93,6.88Z"/></svg>