<svg id="Layer_1" data-name="Layer 1" xmlns="http://www.w3.org/2000/svg" viewBox="0 0 35 35"><defs><style>.cls-1{fill:#e7473d;}</style></defs><title>Search</title><path class="cls-1" d="M30,1a4,4,0,0,1,4,4V30a4,4,0,0,1-4,4H5a4,4,0,0,1-4-4V5A4,4,0,0,1,5,1H30m0-1H5A5,5,0,0,0,0,5V30a5,5,0,0,0,5,5H30a5,5,0,0,0,5-5V5a5,5,0,0,0-5-5Z"/><path class="cls-1" d="M17.87,7.5l-.54,0a8.87,8.87,0,0,0-5.66,15.15L8.38,26.31a.75.75,0,0,0,.05,1,.7.7,0,0,0,.47.19.72.72,0,0,0,.53-.24l3.32-3.67a8.68,8.68,0,0,0,5.08,1.64,9.1,9.1,0,0,0,1.06-.06,8.86,8.86,0,0,0-1-17.66Zm0,16.3a7.42,7.42,0,1,1,7.42-7.42A7.43,7.43,0,0,1,17.9,23.8Z"/></svg>