<svg id="Layer_1" data-name="Layer 1" xmlns="http://www.w3.org/2000/svg" viewBox="0 0 24 24"><defs><style>.cls-1{fill:#95a4ab;}</style></defs><title>settings-inactive</title><path class="cls-1" d="M2,1.45a.54.54,0,1,1,1.08,0v12.4a.54.54,0,0,1-1.08,0V1.45ZM2,17.91a.54.54,0,0,1,1.08,0v4.64a.54.54,0,1,1-1.08,0Z"/><path class="cls-1" d="M11.46,1.45a.54.54,0,0,1,1.08,0V6.09a.54.54,0,0,1-1.08,0V1.45Zm0,8.69a.54.54,0,0,1,1.08,0v12.4a.54.54,0,1,1-1.08,0Z"/><path class="cls-1" d="M20.89,1.45a.54.54,0,1,1,1.08,0V10a.54.54,0,0,1-1.08,0V1.45Zm0,12.57A.54.54,0,0,1,22,14v8.52a.54.54,0,1,1-1.08,0Z"/><path class="cls-1" d="M12,5.55a2.57,2.57,0,1,1-1.82.75A2.56,2.56,0,0,1,12,5.55Zm1.05,1.52a1.49,1.49,0,1,0,.44,1.05A1.48,1.48,0,0,0,13.05,7.07Z"/><path class="cls-1" d="M2.57,13.31a2.57,2.57,0,1,1-1.82.75,2.56,2.56,0,0,1,1.82-.75Zm1.05,1.52a1.49,1.49,0,1,0,.44,1.05A1.48,1.48,0,0,0,3.62,14.83Z"/><path class="cls-1" d="M21.43,9.43a2.57,2.57,0,1,1-1.82.75,2.56,2.56,0,0,1,1.82-.75Zm1.05,1.52A1.49,1.49,0,1,0,22.92,12,1.48,1.48,0,0,0,22.48,10.95Z"/></svg>